<?xml version="1.0" encoding="UTF-8" standalone="no"?>
<!-- Created with Inkscape (http://www.inkscape.org/) -->

<svg
   width="303"
   height="103"
   viewBox="0 0 80.168749 27.252083"
   version="1.1"
   id="svg1"
   sodipodi:docname="AFib.svg"
   inkscape:version="1.4.2 (f4327f4, 2025-05-13)"
   xmlns:inkscape="http://www.inkscape.org/namespaces/inkscape"
   xmlns:sodipodi="http://sodipodi.sourceforge.net/DTD/sodipodi-0.dtd"
   xmlns="http://www.w3.org/2000/svg"
   xmlns:svg="http://www.w3.org/2000/svg">
  <sodipodi:namedview
     id="namedview1"
     pagecolor="#ffffff"
     bordercolor="#000000"
     borderopacity="0.25"
     inkscape:showpageshadow="2"
     inkscape:pageopacity="0.0"
     inkscape:pagecheckerboard="0"
     inkscape:deskcolor="#d1d1d1"
     inkscape:zoom="2.0629782"
     inkscape:cx="70.044366"
     inkscape:cy="43.383881"
     inkscape:window-width="1920"
     inkscape:window-height="974"
     inkscape:window-x="-11"
     inkscape:window-y="-11"
     inkscape:window-maximized="1"
     inkscape:current-layer="g27" />
  <style
     id="style105">
.measure-arrow
{
}
.measure-label
{

}
.measure-line
{
}</style>
  <defs
     id="defs1">
    <clipPath
       clipPathUnits="userSpaceOnUse"
       id="clipPath27">
      <path
         id="path28"
         style="display:inline;fill:#ffffff;stroke-width:0.529167"
         d="M 1.0307333e-6,8.5996319e-8 H 80.168749 V 27.252083 H 1.0307333e-6 Z" />
    </clipPath>
  </defs>
  <path
     id="rect3"
     style="display:inline;fill:#ffffff;stroke-width:0.529167"
     d="M 1.0307333e-6,8.5996319e-8 H 80.168748 V 27.252083 H 1.0307333e-6 Z" />
  <g
     id="layer2">
    <g
       id="g27">
      <g
         id="g12"
         style="stroke:#ff9999;stroke-width:0.264583;stroke-dasharray:none;stroke-opacity:1">
        <path
           style="fill:none;stroke:#ff9999;stroke-width:0.264583;stroke-dasharray:none;stroke-opacity:1"
           d="M 80.168749,19.976041 H 0"
           id="path8" />
        <path
           style="fill:none;stroke:#ff9999;stroke-width:0.264583;stroke-dasharray:none;stroke-opacity:1"
           d="M 80.168749,9.3927081 H 0"
           id="path9" />
        <path
           style="fill:none;stroke:#ff9999;stroke-width:0.264583;stroke-dasharray:none;stroke-opacity:1"
           d="M 80.168749,14.684374 H 0"
           id="path10" />
        <path
           style="fill:none;stroke:#ff9999;stroke-width:0.264583;stroke-dasharray:none;stroke-opacity:1"
           d="M 80.168749,4.1010415 H 0"
           id="path11" />
        <path
           style="fill:none;stroke:#ff9999;stroke-width:0.264583;stroke-dasharray:none;stroke-opacity:1"
           d="M 80.168749,25.267708 H 0"
           id="path12" />
        <path
           style="fill:none;stroke:#ff9999;stroke-width:0.264583;stroke-dasharray:none;stroke-opacity:1"
           d="M 80.168749,21.034374 H 0"
           id="path13" />
        <path
           style="fill:none;stroke:#ff9999;stroke-width:0.264583;stroke-dasharray:none;stroke-opacity:1"
           d="M 80.168749,10.451041 H 0"
           id="path14" />
        <path
           style="fill:none;stroke:#ff9999;stroke-width:0.264583;stroke-dasharray:none;stroke-opacity:1"
           d="M 80.168749,15.742707 H 0"
           id="path15" />
        <path
           style="fill:none;stroke:#ff9999;stroke-width:0.264583;stroke-dasharray:none;stroke-opacity:1"
           d="M 80.168749,5.1593749 H 0"
           id="path16" />
        <path
           style="fill:none;stroke:#ff9999;stroke-width:0.264583;stroke-dasharray:none;stroke-opacity:1"
           d="M 80.168749,26.326041 H 0"
           id="path17" />
        <path
           style="fill:none;stroke:#ff9999;stroke-width:0.264583;stroke-dasharray:none;stroke-opacity:1"
           d="M 80.168749,22.092708 H 0"
           id="path18" />
        <path
           style="fill:none;stroke:#ff9999;stroke-width:0.264583;stroke-dasharray:none;stroke-opacity:1"
           d="M 80.168749,11.509375 H 0"
           id="path19" />
        <path
           style="fill:none;stroke:#ff9999;stroke-width:0.264583;stroke-dasharray:none;stroke-opacity:1"
           d="M 80.168749,16.801041 H 0"
           id="path20" />
        <path
           style="fill:none;stroke:#ff9999;stroke-width:0.264583;stroke-dasharray:none;stroke-opacity:1"
           d="M 80.168749,6.2177084 H 0"
           id="path21" />
        <path
           style="fill:none;stroke:#ff9999;stroke-width:0.264583;stroke-dasharray:none;stroke-opacity:1"
           d="M 80.168749,23.151041 H 0"
           id="path23" />
        <path
           style="fill:none;stroke:#ff9999;stroke-width:0.264583;stroke-dasharray:none;stroke-opacity:1"
           d="M 80.168749,12.567708 H 0"
           id="path24" />
        <path
           style="fill:none;stroke:#ff9999;stroke-width:0.264583;stroke-dasharray:none;stroke-opacity:1"
           d="M 80.168749,17.859374 H 0"
           id="path25" />
        <path
           style="fill:none;stroke:#ff9999;stroke-width:0.264583;stroke-dasharray:none;stroke-opacity:1"
           d="M 80.168749,7.2760418 H 0"
           id="path26" />
        <path
           style="fill:none;stroke:#ff9999;stroke-width:0.264583;stroke-dasharray:none;stroke-opacity:1"
           d="M 80.168749,1.984375 H 0"
           id="path42" />
        <path
           style="fill:none;stroke:#ff9999;stroke-width:0.264583;stroke-dasharray:none;stroke-opacity:1"
           d="M 80.168749,0.92604166 H 0"
           id="path43" />
      </g>
      <g
         id="g58"
         style="stroke:#ff9999;stroke-width:0.264583;stroke-dasharray:none;stroke-opacity:1">
        <path
           style="fill:none;stroke:#ff9999;stroke-width:0.264583;stroke-dasharray:none;stroke-opacity:1"
           d="M 41.142709,0 V 27.252083"
           id="path44" />
        <path
           style="fill:none;stroke:#ff9999;stroke-width:0.264583;stroke-dasharray:none;stroke-opacity:1"
           d="M 46.434375,0 V 27.252083"
           id="path45" />
        <path
           style="fill:none;stroke:#ff9999;stroke-width:0.264583;stroke-dasharray:none;stroke-opacity:1"
           d="M 51.726042,-5.1650165e-8 V 27.252083"
           id="path46" />
        <path
           style="fill:none;stroke:#ff9999;stroke-width:0.264583;stroke-dasharray:none;stroke-opacity:1"
           d="M 57.017708,-5.1650165e-8 V 27.252083"
           id="path47" />
        <path
           style="fill:none;stroke:#ff9999;stroke-width:0.264583;stroke-dasharray:none;stroke-opacity:1"
           d="M 62.309376,2.4834983e-7 V 27.252083"
           id="path48" />
        <path
           style="fill:none;stroke:#ff9999;stroke-width:0.264583;stroke-dasharray:none;stroke-opacity:1"
           d="M 67.601042,2.4834983e-7 V 27.252083"
           id="path49" />
        <path
           style="fill:none;stroke:#ff9999;stroke-width:0.264583;stroke-dasharray:none;stroke-opacity:1"
           d="M 72.892708,1.4834983e-7 V 27.252083"
           id="path50" />
        <path
           style="fill:none;stroke:#ff9999;stroke-width:0.264583;stroke-dasharray:none;stroke-opacity:1"
           d="M 78.184374,1.4834983e-7 V 27.252083"
           id="path51" />
        <path
           style="fill:none;stroke:#ff9999;stroke-width:0.264583;stroke-dasharray:none;stroke-opacity:1"
           d="M 4.101042,-1.0165016e-7 V 27.252083"
           id="path52" />
        <path
           style="fill:none;stroke:#ff9999;stroke-width:0.264583;stroke-dasharray:none;stroke-opacity:1"
           d="M 9.392709,-2.0165016e-7 V 27.252083"
           id="path53" />
        <path
           style="fill:none;stroke:#ff9999;stroke-width:0.264583;stroke-dasharray:none;stroke-opacity:1"
           d="M 14.684375,-2.0165016e-7 V 27.252083"
           id="path54" />
        <path
           style="fill:none;stroke:#ff9999;stroke-width:0.264583;stroke-dasharray:none;stroke-opacity:1"
           d="M 19.976043,9.8349836e-8 V 27.252083"
           id="path55" />
        <path
           style="fill:none;stroke:#ff9999;stroke-width:0.264583;stroke-dasharray:none;stroke-opacity:1"
           d="M 25.267709,4.7524755e-8 V 27.252083"
           id="path56" />
        <path
           style="fill:none;stroke:#ff9999;stroke-width:0.264583;stroke-dasharray:none;stroke-opacity:1"
           d="M 30.559375,0 V 27.252083"
           id="path57" />
        <path
           style="fill:none;stroke:#ff9999;stroke-width:0.264583;stroke-dasharray:none;stroke-opacity:1"
           d="M 35.851041,0 V 27.252083"
           id="path58" />
        <path
           style="fill:none;stroke:#ff9999;stroke-width:0.264583;stroke-dasharray:none;stroke-opacity:1"
           d="M 42.201042,9.9174917e-8 V 27.252083"
           id="path59" />
        <path
           style="fill:none;stroke:#ff9999;stroke-width:0.264583;stroke-dasharray:none;stroke-opacity:1"
           d="M 47.492708,9.9174917e-8 V 27.252083"
           id="path60" />
        <path
           style="fill:none;stroke:#ff9999;stroke-width:0.264583;stroke-dasharray:none;stroke-opacity:1"
           d="M 52.784375,4.7524752e-8 V 27.252083"
           id="path61" />
        <path
           style="fill:none;stroke:#ff9999;stroke-width:0.264583;stroke-dasharray:none;stroke-opacity:1"
           d="M 58.076041,4.7524752e-8 V 27.252083"
           id="path62" />
        <path
           style="fill:none;stroke:#ff9999;stroke-width:0.264583;stroke-dasharray:none;stroke-opacity:1"
           d="M 63.367709,3.4752475e-7 V 27.252083"
           id="path63" />
        <path
           style="fill:none;stroke:#ff9999;stroke-width:0.264583;stroke-dasharray:none;stroke-opacity:1"
           d="M 68.659375,3.4752475e-7 V 27.252083"
           id="path64" />
        <path
           style="fill:none;stroke:#ff9999;stroke-width:0.264583;stroke-dasharray:none;stroke-opacity:1"
           d="M 73.951041,2.4752475e-7 V 27.252083"
           id="path65" />
        <path
           style="fill:none;stroke:#ff9999;stroke-width:0.264583;stroke-dasharray:none;stroke-opacity:1"
           d="M 79.242707,2.4752475e-7 V 27.252083"
           id="path66" />
        <path
           style="fill:none;stroke:#ff9999;stroke-width:0.264583;stroke-dasharray:none;stroke-opacity:1"
           d="M 5.1593751,0 V 27.252083"
           id="path67" />
        <path
           style="fill:none;stroke:#ff9999;stroke-width:0.264583;stroke-dasharray:none;stroke-opacity:1"
           d="M 10.451042,-1.0247524e-7 V 27.252083"
           id="path68" />
        <path
           style="fill:none;stroke:#ff9999;stroke-width:0.264583;stroke-dasharray:none;stroke-opacity:1"
           d="M 15.742708,-1.0247524e-7 V 27.252083"
           id="path69" />
        <path
           style="fill:none;stroke:#ff9999;stroke-width:0.264583;stroke-dasharray:none;stroke-opacity:1"
           d="M 21.034376,1.9752475e-7 V 27.252083"
           id="path70" />
        <path
           style="fill:none;stroke:#ff9999;stroke-width:0.264583;stroke-dasharray:none;stroke-opacity:1"
           d="M 26.326042,1.4669967e-7 V 27.252083"
           id="path71" />
        <path
           style="fill:none;stroke:#ff9999;stroke-width:0.264583;stroke-dasharray:none;stroke-opacity:1"
           d="M 31.617708,9.9174917e-8 V 27.252083"
           id="path72" />
        <path
           style="fill:none;stroke:#ff9999;stroke-width:0.264583;stroke-dasharray:none;stroke-opacity:1"
           d="M 36.909374,9.9174917e-8 V 27.252083"
           id="path73" />
        <path
           style="fill:none;stroke:#ff9999;stroke-width:0.264583;stroke-dasharray:none;stroke-opacity:1"
           d="M 37.967709,9.9174917e-8 V 27.252083"
           id="path74" />
        <path
           style="fill:none;stroke:#ff9999;stroke-width:0.264583;stroke-dasharray:none;stroke-opacity:1"
           d="M 43.259375,9.9174917e-8 V 27.252083"
           id="path75" />
        <path
           style="fill:none;stroke:#ff9999;stroke-width:0.264583;stroke-dasharray:none;stroke-opacity:1"
           d="M 48.551042,4.7524752e-8 V 27.252083"
           id="path76" />
        <path
           style="fill:none;stroke:#ff9999;stroke-width:0.264583;stroke-dasharray:none;stroke-opacity:1"
           d="M 53.842708,4.7524752e-8 V 27.252083"
           id="path77" />
        <path
           style="fill:none;stroke:#ff9999;stroke-width:0.264583;stroke-dasharray:none;stroke-opacity:1"
           d="M 59.134376,3.4752475e-7 V 27.252083"
           id="path78" />
        <path
           style="fill:none;stroke:#ff9999;stroke-width:0.264583;stroke-dasharray:none;stroke-opacity:1"
           d="M 64.426042,3.4752475e-7 V 27.252083"
           id="path79" />
        <path
           style="fill:none;stroke:#ff9999;stroke-width:0.264583;stroke-dasharray:none;stroke-opacity:1"
           d="M 69.717708,2.4752475e-7 V 27.252083"
           id="path80" />
        <path
           style="fill:none;stroke:#ff9999;stroke-width:0.264583;stroke-dasharray:none;stroke-opacity:1"
           d="M 75.009374,2.4752475e-7 V 27.252083"
           id="path81" />
        <path
           style="fill:none;stroke:#ff9999;stroke-width:0.264583;stroke-dasharray:none;stroke-opacity:1"
           d="M 0.92604202,0 V 27.252083"
           id="path82" />
        <path
           style="fill:none;stroke:#ff9999;stroke-width:0.264583;stroke-dasharray:none;stroke-opacity:1"
           d="M 6.217709,-1.0247524e-7 V 27.252083"
           id="path83" />
        <path
           style="fill:none;stroke:#ff9999;stroke-width:0.264583;stroke-dasharray:none;stroke-opacity:1"
           d="M 11.509375,-1.0247524e-7 V 27.252083"
           id="path84" />
        <path
           style="fill:none;stroke:#ff9999;stroke-width:0.264583;stroke-dasharray:none;stroke-opacity:1"
           d="M 16.801043,1.9752475e-7 V 27.252083"
           id="path85" />
        <path
           style="fill:none;stroke:#ff9999;stroke-width:0.264583;stroke-dasharray:none;stroke-opacity:1"
           d="M 22.092709,1.4669967e-7 V 27.252083"
           id="path86" />
        <path
           style="fill:none;stroke:#ff9999;stroke-width:0.264583;stroke-dasharray:none;stroke-opacity:1"
           d="M 27.384375,9.9174917e-8 V 27.252083"
           id="path87" />
        <path
           style="fill:none;stroke:#ff9999;stroke-width:0.264583;stroke-dasharray:none;stroke-opacity:1"
           d="M 32.676041,9.9174917e-8 V 27.252083"
           id="path88" />
        <path
           style="fill:none;stroke:#ff9999;stroke-width:0.264583;stroke-dasharray:none;stroke-opacity:1"
           d="M 39.026042,1.9834983e-7 V 27.252083"
           id="path89" />
        <path
           style="fill:none;stroke:#ff9999;stroke-width:0.264583;stroke-dasharray:none;stroke-opacity:1"
           d="M 44.317708,1.9834983e-7 V 27.252083"
           id="path90" />
        <path
           style="fill:none;stroke:#ff9999;stroke-width:0.264583;stroke-dasharray:none;stroke-opacity:1"
           d="M 49.609375,1.4669967e-7 V 27.252083"
           id="path91" />
        <path
           style="fill:none;stroke:#ff9999;stroke-width:0.264583;stroke-dasharray:none;stroke-opacity:1"
           d="M 54.901041,1.4669967e-7 V 27.252083"
           id="path92" />
        <path
           style="fill:none;stroke:#ff9999;stroke-width:0.264583;stroke-dasharray:none;stroke-opacity:1"
           d="M 60.192709,4.4669967e-7 V 27.252083"
           id="path93" />
        <path
           style="fill:none;stroke:#ff9999;stroke-width:0.264583;stroke-dasharray:none;stroke-opacity:1"
           d="M 65.484375,4.4669967e-7 V 27.252083"
           id="path94" />
        <path
           style="fill:none;stroke:#ff9999;stroke-width:0.264583;stroke-dasharray:none;stroke-opacity:1"
           d="M 70.776041,3.4669967e-7 V 27.252083"
           id="path95" />
        <path
           style="fill:none;stroke:#ff9999;stroke-width:0.264583;stroke-dasharray:none;stroke-opacity:1"
           d="M 76.067707,3.4669967e-7 V 27.252083"
           id="path96" />
        <path
           style="fill:none;stroke:#ff9999;stroke-width:0.264583;stroke-dasharray:none;stroke-opacity:1"
           d="M 1.9843751,9.9174917e-8 V 27.252083"
           id="path97" />
        <path
           style="fill:none;stroke:#ff9999;stroke-width:0.264583;stroke-dasharray:none;stroke-opacity:1"
           d="M 7.276042,0 V 27.252083"
           id="path98" />
        <path
           style="fill:none;stroke:#ff9999;stroke-width:0.264583;stroke-dasharray:none;stroke-opacity:1"
           d="M 12.567708,0 V 27.252083"
           id="path99" />
        <path
           style="fill:none;stroke:#ff9999;stroke-width:0.264583;stroke-dasharray:none;stroke-opacity:1"
           d="M 17.859376,2.9669967e-7 V 27.252083"
           id="path100" />
        <path
           style="fill:none;stroke:#ff9999;stroke-width:0.264583;stroke-dasharray:none;stroke-opacity:1"
           d="M 23.151042,2.4587459e-7 V 27.252083"
           id="path101" />
        <path
           style="fill:none;stroke:#ff9999;stroke-width:0.264583;stroke-dasharray:none;stroke-opacity:1"
           d="M 28.442708,1.9834983e-7 V 27.252083"
           id="path102" />
        <path
           style="fill:none;stroke:#ff9999;stroke-width:0.264583;stroke-dasharray:none;stroke-opacity:1"
           d="M 33.734374,1.9834983e-7 V 27.252083"
           id="path103" />
      </g>
    </g>
    <g
       id="g13"
       style="stroke:#ff1a1a;stroke-width:0.264583;stroke-dasharray:none;stroke-opacity:1">
      <g
         id="g7"
         style="stroke:#ff1a1a;stroke-width:0.264583;stroke-dasharray:none;stroke-opacity:1">
        <path
           style="fill:none;stroke:#ff1a1a;stroke-width:0.264583;stroke-dasharray:none;stroke-opacity:1"
           d="M 80.168749,18.917708 H 0"
           id="path3" />
        <path
           style="fill:none;stroke:#ff1a1a;stroke-width:0.264583;stroke-dasharray:none;stroke-opacity:1"
           d="M 80.168749,8.3343749 H 0"
           id="path4" />
        <path
           style="fill:none;stroke:#ff1a1a;stroke-width:0.264583;stroke-dasharray:none;stroke-opacity:1"
           d="M 80.168749,13.626041 H 0"
           id="path5" />
        <path
           style="fill:none;stroke:#ff1a1a;stroke-width:0.264583;stroke-dasharray:none;stroke-opacity:1"
           d="M 80.168749,3.0427083 H 0"
           id="path6" />
        <path
           style="fill:none;stroke:#ff1a1a;stroke-width:0.264583;stroke-dasharray:none;stroke-opacity:1"
           d="M 80.168749,24.209375 H 0"
           id="path7" />
      </g>
      <g
         id="g3"
         style="stroke:#ff1a1a;stroke-width:0.264583;stroke-dasharray:none;stroke-opacity:1">
        <path
           style="fill:none;stroke:#ff1a1a;stroke-width:0.264583;stroke-dasharray:none;stroke-opacity:1"
           d="m 40.084375,0 c 0,9.0840277 0,18.168055 0,27.252083"
           id="path1" />
        <path
           style="fill:none;stroke:#ff1a1a;stroke-width:0.264583;stroke-dasharray:none;stroke-opacity:1"
           d="m 45.376041,0 c 0,9.0840277 0,18.168055 0,27.252083"
           id="path2" />
        <path
           style="fill:none;stroke:#ff1a1a;stroke-width:0.264583;stroke-dasharray:none;stroke-opacity:1"
           d="M 50.667708,-5.1650165e-8 C 50.667708,9.0840276 50.667708,18.168055 50.667708,27.252083"
           id="path1-3" />
        <path
           style="fill:none;stroke:#ff1a1a;stroke-width:0.264583;stroke-dasharray:none;stroke-opacity:1"
           d="M 55.959374,-5.1650165e-8 C 55.959374,9.0840276 55.959374,18.168055 55.959374,27.252083"
           id="path2-8" />
        <path
           style="fill:none;stroke:#ff1a1a;stroke-width:0.264583;stroke-dasharray:none;stroke-opacity:1"
           d="m 61.251042,2.4834983e-7 c 0,9.08402755165017 0,18.16805475165017 0,27.25208275165017"
           id="path1-7" />
        <path
           style="fill:none;stroke:#ff1a1a;stroke-width:0.264583;stroke-dasharray:none;stroke-opacity:1"
           d="m 66.542708,2.4834983e-7 c 0,9.08402755165017 0,18.16805475165017 0,27.25208275165017"
           id="path2-2" />
        <path
           style="fill:none;stroke:#ff1a1a;stroke-width:0.264583;stroke-dasharray:none;stroke-opacity:1"
           d="m 71.834374,1.4834983e-7 c 0,9.08402765165017 0,18.16805485165017 0,27.25208285165017"
           id="path1-3-7" />
        <path
           style="fill:none;stroke:#ff1a1a;stroke-width:0.264583;stroke-dasharray:none;stroke-opacity:1"
           d="M 77.12604,1.4834983e-7 C 77.12604,9.0840278 77.12604,18.168055 77.12604,27.252083"
           id="path2-8-8" />
        <path
           style="fill:none;stroke:#ff1a1a;stroke-width:0.264583;stroke-dasharray:none;stroke-opacity:1"
           d="m 3.0427083,-1.0165016e-7 c 0,9.08402770165016 0,18.16805510165016 0,27.25208310165016"
           id="path2-0" />
        <path
           style="fill:none;stroke:#ff1a1a;stroke-width:0.264583;stroke-dasharray:none;stroke-opacity:1"
           d="m 8.3343753,-2.0165016e-7 c 0,9.08402770165016 0,18.16805520165016 0,27.25208320165016"
           id="path1-3-1" />
        <path
           style="fill:none;stroke:#ff1a1a;stroke-width:0.264583;stroke-dasharray:none;stroke-opacity:1"
           d="m 13.626041,-2.0165016e-7 c 0,9.08402770165016 0,18.16805520165016 0,27.25208320165016"
           id="path2-8-5" />
        <path
           style="fill:none;stroke:#ff1a1a;stroke-width:0.264583;stroke-dasharray:none;stroke-opacity:1"
           d="M 18.917709,9.8349836e-8 C 18.917709,9.0840277 18.917709,18.168055 18.917709,27.252083"
           id="path1-7-6" />
        <path
           style="fill:none;stroke:#ff1a1a;stroke-width:0.264583;stroke-dasharray:none;stroke-opacity:1"
           d="M 24.209375,9.8349836e-8 C 24.209375,9.0840277 24.209375,18.168055 24.209375,27.252083"
           id="path2-2-7" />
        <path
           style="fill:none;stroke:#ff1a1a;stroke-width:0.264583;stroke-dasharray:none;stroke-opacity:1"
           d="m 29.501041,0 c 0,9.0840277 0,18.168055 0,27.252083"
           id="path1-3-7-0" />
        <path
           style="fill:none;stroke:#ff1a1a;stroke-width:0.264583;stroke-dasharray:none;stroke-opacity:1"
           d="m 34.792707,0 c 0,9.0840277 0,18.168055 0,27.252083"
           id="path2-8-8-3" />
      </g>
    </g>
  </g>
  <g
     id="layer1"
     style="display:inline">
    <path
       id="rect103"
       style="fill:none;stroke:#000000;stroke-width:0.522361"
       d="M 0.26118043,0.26118043 H 79.907573 V 26.990903 H 0.26118043 Z" />
  </g>
  <g
     id="layer5"
     clip-path="url(#clipPath27)">
    <path
       id="path22"
       style="display:inline;fill:none;stroke:#000000;stroke-width:0.529167;stroke-miterlimit:4;stroke-dasharray:none;stroke-opacity:1"
       d="m 0,15.743 c 0,0 0.32452969,-0.175292 0.49999999,-0.166667 0.18376624,0.009 0.32023078,0.21605 0.50399831,0.225056 0.1741272,0.0085 0.3306298,-0.11071 0.4961217,-0.165533 0.166667,-0.05521 0.3247848,-0.165709 0.5003551,-0.164563 0.1769884,0.0012 0.3251993,0.171359 0.502188,0.172462 0.1746642,0.0011 0.32301,-0.164918 0.4976752,-0.164007 0.1766919,9.22e-4 0.3343359,0.11447 0.5016909,0.171155 0.1659496,0.05621 0.3320278,0.112039 0.4982173,0.167534 0.1665143,0.0556 0.3243409,0.166361 0.4998927,0.16576 0.1764422,-6.04e-4 0.3248332,-0.169417 0.5012753,-0.170038 0.175126,-6.17e-4 0.3185805,-0.03778 0.4781991,-0.05355 0.069559,-0.0069 0.208928,-0.0179 0.208928,-0.0179 l 0.5291667,2.116667 0.7937501,-12.9645834 1.058333,14.0229164 0.758607,-3.175 h 0.5519463 c 0,0 -0.0023,0.01115 0.426018,0 0.4282923,-0.01115 1.3002263,-2.218677 2.1300903,-2.194029 0.829864,0.02465 1.073306,1.704374 1.278054,1.919776 0.204748,0.215401 0.426018,0.274253 0.426018,0.274253 0,0 0.06048,0.01373 0.08963,0.0068 0.153522,-0.03652 0.22855,-0.245545 0.405379,-0.24453 0.174677,10e-4 0.199696,-0.131766 0.365723,-0.186065 0.167261,-0.0547 0.326008,-0.164945 0.501981,-0.163501 0.177293,0.0015 0.335243,0.115551 0.502976,0.173002 0.165569,0.05671 0.331206,0.113223 0.496927,0.169489 0.16591,0.05633 0.3319,0.112428 0.497966,0.168297 0.166259,0.05593 0.332597,0.111636 0.49901,0.167112 0.1666,0.05554 0.324416,0.166405 0.500029,0.165928 0.176285,-4.78e-4 0.333949,-0.113066 0.50103,-0.169284 0.166254,-0.05594 0.332571,-0.111691 0.498972,-0.167193 0.16658,-0.05556 0.333236,-0.110894 0.499968,-0.165997 0.166916,-0.05516 0.325181,-0.165735 0.500974,-0.164803 0.176768,9.38e-4 0.334572,0.114248 0.501967,0.171052 0.165934,0.05631 0.331933,0.112426 0.498017,0.168291 0.166266,0.05593 0.323611,0.167095 0.49903,0.167084 0.175789,-1.1e-5 0.333304,-0.111876 0.500062,-0.167497 0.166573,-0.05556 0.333209,-0.110931 0.49993,-0.166046 0.166904,-0.05518 0.333886,-0.110118 0.500945,-0.164824 0.167244,-0.05477 0.325986,-0.16502 0.501963,-0.163595 0.177291,0.0014 0.335241,0.115542 0.502975,0.172983 0.165583,0.05671 0.266765,0.255042 0.432503,0.311292 0.165927,0.05631 0.331934,0.11239 0.498022,0.168225 0.166285,0.0559 0.173748,0.05179 0.340194,0.107209 0.166641,0.05548 0.351597,-0.0625 0.518399,-0.0075 0.166996,0.05506 0.20231,0.258995 0.378147,0.257911 l 0.255917,0.08532 0.529167,2.116667 0.79375,-12.9645837 1.058333,14.0229167 0.758607,-3.175 h 0.551946 c 0,0 -0.0023,0.01115 0.426018,0 0.428292,-0.01115 1.300226,-2.218677 2.13009,-2.194029 0.829864,0.02465 1.073306,1.704374 1.278054,1.919776 0.204748,0.215401 0.426018,0.274253 0.426018,0.274253 0,0 0.130828,-0.01486 0.193597,-0.03356 0.157411,-0.04689 0.286481,-0.141158 0.452407,-0.195247 0.167363,-0.05456 0.309011,-0.289408 0.476548,-0.343429 0.167779,-0.0541 0.327343,-0.163772 0.503612,-0.161438 0.178275,0.0024 0.326567,0.174315 0.504842,0.176702 0.173245,0.0023 0.321774,-0.160833 0.495019,-0.158518 0.178196,0.0024 0.336324,0.118 0.504628,0.176595 0.164927,0.05742 0.320429,-0.359434 0.495057,-0.357705 0.173935,0.0017 0.330833,-0.107589 0.496379,-0.160986 0.167712,-0.0541 0.327191,-0.163796 0.503397,-0.161479 0.178265,0.0023 0.336442,0.118082 0.50481,0.176702 0.164924,0.05742 0.239677,0.140386 0.404802,0.197226 0.165371,0.05692 0.321539,0.168798 0.49643,0.169852 0.174677,0.0011 0.323155,-0.164674 0.497832,-0.163654 0.176851,10e-4 0.283033,-0.168992 0.450485,-0.112095 0.165866,0.05636 0.331817,0.112463 0.49789,0.168207 0.166321,0.05583 0.284951,0.03609 0.409036,0.102039 0.06673,0.03547 0.168545,0.151628 0.168545,0.151628 l 0.529167,2.116667 0.79375,-12.9645834 1.058333,14.0229164 0.758607,-3.175 h 0.551946 c 0,0 -0.0023,0.01115 0.426018,0 0.428292,-0.01115 1.300226,-2.218677 2.13009,-2.194029 0.829864,0.02465 1.073306,1.704374 1.278054,1.919776 0.204748,0.215401 0.426018,0.274253 0.426018,0.274253 0,0 0.08367,0.02977 0.127101,0.03817 0.161374,0.03122 0.314791,0.04733 0.491084,0.04454 0.178818,-0.0028 0.326974,-0.176094 0.505791,-0.178972 0.172778,-0.0028 0.329229,0.105116 0.494022,0.157109 0.16838,0.05312 0.328981,0.161934 0.505504,0.158218 0.179789,-0.0038 0.327832,-0.178834 0.50762,-0.18267 0.171772,-0.0037 0.320217,0.15734 0.491989,0.153681 0.179629,-0.0038 0.33797,-0.122073 0.507182,-0.182476 0.163874,-0.0585 0.327875,-0.11664 0.492058,-0.174262 0.164584,-0.05776 0.329328,0.414097 0.49424,0.357281 0.165302,-0.05695 0.330767,-0.113434 0.496401,-0.169411 0.16603,-0.05611 0.323334,-0.167177 0.498589,-0.166848 0.176255,3.31e-4 0.333716,0.113573 0.500802,0.169683 0.166248,0.05583 0.323824,0.166776 0.499195,0.166137 0.176595,-6.44e-4 0.334138,-0.114442 0.501447,-0.170958 0.166027,-0.05608 0.222779,-0.285009 0.389147,-0.340073 0.166784,-0.0552 0.325225,-0.165497 0.5009,-0.163944 0.177585,0.0016 0.325751,0.173011 0.503335,0.174654 0.174132,0.0016 0.330924,-0.108572 0.496633,-0.162099 0.167573,-0.05413 0.33528,-0.107853 0.503214,-0.160853 0.168429,-0.05316 0.3293,-0.161748 0.50587,-0.157611 0.180314,0.0042 0.340663,0.11891 0.508492,0.184973 0.06082,0.02394 0.180522,0.07656 0.180522,0.07656 l 0.529167,2.116667 0.79375,-12.9645831 1.058333,14.0229161 0.758607,-3.175 h 0.551946 c 0,0 -0.0023,0.01115 0.426018,0 0.428292,-0.01115 1.300226,-2.218677 2.13009,-2.194029 0.829864,0.02465 1.073306,1.704374 1.278054,1.919776 0.204748,0.215401 0.426018,0.274253 0.426018,0.274253 0,0 0.135699,0.02337 0.203988,0.02065 0.134592,-0.0054 0.220057,-0.08247 0.397526,-0.07257 0.186313,0.01039 0.332757,0.199106 0.51906,0.209667 0.164917,0.0093 0.31808,-0.08926 0.477506,-0.132483 0.171961,-0.04662 0.262043,0.06236 0.434641,0.01816 0.174097,-0.04459 0.344324,-0.145073 0.523364,-0.1295 0.191862,0.01669 0.351752,0.156953 0.528462,0.233525 0.153847,0.06667 0.242915,0.07016 0.346926,0.138646 0.0958,0.06308 0.243562,0.243079 0.243562,0.243079 l 0.529167,2.116667 0.79375,-12.9645834 1.058333,14.0229164 0.758607,-3.175 h 0.551946 c 0,0 -0.0023,0.01115 0.426018,0 0.428292,-0.01115 1.300226,-2.218677 2.13009,-2.194029 0.829864,0.02465 1.073306,1.704374 1.278054,1.919776 0.204748,0.215401 0.426018,0.274253 0.426018,0.274253" />
  </g>
</svg>
