<?xml version="1.0" encoding="UTF-8" standalone="no"?>
<!-- Created with Inkscape (http://www.inkscape.org/) -->
<svg
   xmlns:dc="http://purl.org/dc/elements/1.1/"
   xmlns:cc="http://creativecommons.org/ns#"
   xmlns:rdf="http://www.w3.org/1999/02/22-rdf-syntax-ns#"
   xmlns:svg="http://www.w3.org/2000/svg"
   xmlns="http://www.w3.org/2000/svg"
   xmlns:sodipodi="http://sodipodi.sourceforge.net/DTD/sodipodi-0.dtd"
   xmlns:inkscape="http://www.inkscape.org/namespaces/inkscape"
   width="1480.0067"
   height="908.10492"
   id="svg2636"
   sodipodi:version="0.32"
   inkscape:version="0.46"
   version="1.0"
   sodipodi:docname="MI.svg"
   inkscape:output_extension="org.inkscape.output.svg.inkscape"
   inkscape:export-filename="C:\Documents and Settings\Madhero88\My Documents\MI.png"
   inkscape:export-xdpi="90"
   inkscape:export-ydpi="90">
  <defs
     id="defs2638">
    <clipPath
       clipPathUnits="userSpaceOnUse"
       id="clipPath95">
      <path
         d="M 87.5,446 L 87.5,202.702 L 484.021,202.702 L 484.021,446"
         id="path97" />
    </clipPath>
    <clipPath
       clipPathUnits="userSpaceOnUse"
       id="clipPath231">
      <path
         d="M 87.5,446 L 87.5,202.702 L 484.021,202.702 L 484.021,446"
         id="path233" />
    </clipPath>
    <inkscape:perspective
       sodipodi:type="inkscape:persp3d"
       inkscape:vp_x="0 : 526.18109 : 1"
       inkscape:vp_y="0 : 1000 : 0"
       inkscape:vp_z="744.09448 : 526.18109 : 1"
       inkscape:persp3d-origin="372.04724 : 350.78739 : 1"
       id="perspective2644" />
  </defs>
  <sodipodi:namedview
     id="base"
     pagecolor="#ffffff"
     bordercolor="#666666"
     borderopacity="1.0"
     gridtolerance="10000"
     guidetolerance="10"
     objecttolerance="10"
     inkscape:pageopacity="0.0"
     inkscape:pageshadow="2"
     inkscape:zoom="0.35"
     inkscape:cx="375"
     inkscape:cy="520"
     inkscape:document-units="px"
     inkscape:current-layer="layer1"
     showgrid="false"
     inkscape:window-width="1152"
     inkscape:window-height="808"
     inkscape:window-x="-4"
     inkscape:window-y="-4" />
  <metadata
     id="metadata2641">
    <rdf:RDF>
      <cc:Work
         rdf:about="">
        <dc:format>image/svg+xml</dc:format>
        <dc:type
           rdf:resource="http://purl.org/dc/dcmitype/StillImage" />
      </cc:Work>
    </rdf:RDF>
  </metadata>
  <g
     inkscape:label="Layer 1"
     inkscape:groupmode="layer"
     id="layer1"
     transform="translate(-131.42523,-158.30972)">
    <g
       transform="matrix(3.73248,0,0,-3.73248,-195.16677,1822.9958)"
       id="g91">
      <g
         id="g93"
         clip-path="url(#clipPath95)">
        <path
           d="M 87.729,445.775 L 483.45,445.775 M 87.729,442.64 L 483.45,442.64 M 87.729,444.208 L 483.45,444.208 M 87.729,441.073 L 483.45,441.073 M 87.729,439.506 L 483.45,439.506 M 87.729,437.939 L 483.45,437.939 M 87.729,436.372 L 483.45,436.372 M 87.729,434.804 L 483.45,434.804 M 87.729,433.237 L 483.45,433.237 M 87.729,431.671 L 483.45,431.671 M 87.729,430.106 L 483.45,430.106 M 87.729,428.54 L 483.45,428.54 M 87.728,426.974 L 483.45,426.974 M 87.729,425.407 L 483.45,425.407 M 87.729,423.841 L 483.45,423.841 M 87.729,422.274 L 483.45,422.274 M 87.729,420.708 L 483.45,420.708 M 87.728,419.141 L 483.45,419.141 M 87.729,417.574 L 483.45,417.574 M 87.729,416.007 L 483.45,416.007 M 87.729,414.441 L 483.45,414.441 M 87.729,412.874 L 483.45,412.874 M 87.729,411.307 L 483.45,411.307 M 87.729,409.74 L 483.45,409.74 M 87.729,408.173 L 483.45,408.173"
           style="fill:none;stroke:#231f20;stroke-width:0.30000001;stroke-linecap:round;stroke-linejoin:round;stroke-miterlimit:4;stroke-dasharray:0.022, 1.5237;stroke-dashoffset:0;stroke-opacity:1"
           id="path99" />
        <path
           d="M 87.729,437.936 L 483.45,437.936 M 87.728,430.098 L 483.45,430.098 M 87.729,422.266 L 483.45,422.266 M 87.729,414.432 L 483.45,414.432"
           style="fill:none;stroke:#929090;stroke-width:0.44999999;stroke-linecap:butt;stroke-linejoin:miter;stroke-miterlimit:4;stroke-dasharray:none;stroke-opacity:1"
           id="path101" />
        <path
           d="M 87.729,406.606 L 483.45,406.606 M 87.729,405.039 L 483.45,405.039 M 87.729,403.472 L 483.45,403.472 M 87.729,401.905 L 483.45,401.905 M 87.729,400.338 L 483.45,400.338"
           style="fill:none;stroke:#231f20;stroke-width:0.30000001;stroke-linecap:round;stroke-linejoin:round;stroke-miterlimit:4;stroke-dasharray:0.022, 1.5237;stroke-dashoffset:0;stroke-opacity:1"
           id="path103" />
        <path
           d="M 87.729,406.599 L 483.45,406.599"
           style="fill:none;stroke:#929090;stroke-width:0.44999999;stroke-linecap:butt;stroke-linejoin:miter;stroke-miterlimit:4;stroke-dasharray:none;stroke-opacity:1"
           id="path105" />
        <path
           d="M 87.729,398.772 L 483.45,398.772 M 87.729,397.205 L 483.45,397.205 M 87.729,395.638 L 483.45,395.638 M 87.729,394.071 L 483.45,394.071 M 87.729,392.504 L 483.45,392.504"
           style="fill:none;stroke:#231f20;stroke-width:0.30000001;stroke-linecap:round;stroke-linejoin:round;stroke-miterlimit:4;stroke-dasharray:0.022, 1.5237;stroke-dashoffset:0;stroke-opacity:1"
           id="path107" />
        <path
           d="M 87.729,398.764 L 483.45,398.764"
           style="fill:none;stroke:#929090;stroke-width:0.44999999;stroke-linecap:butt;stroke-linejoin:miter;stroke-miterlimit:4;stroke-dasharray:none;stroke-opacity:1"
           id="path109" />
        <path
           d="M 87.729,390.938 L 483.45,390.938 M 87.729,389.371 L 483.45,389.371 M 87.729,387.804 L 483.45,387.804 M 87.729,386.237 L 483.45,386.237 M 87.729,384.67 L 483.45,384.67"
           style="fill:none;stroke:#231f20;stroke-width:0.30000001;stroke-linecap:round;stroke-linejoin:round;stroke-miterlimit:4;stroke-dasharray:0.022, 1.5237;stroke-dashoffset:0;stroke-opacity:1"
           id="path111" />
        <path
           d="M 87.729,390.931 L 483.45,390.931"
           style="fill:none;stroke:#929090;stroke-width:0.44999999;stroke-linecap:butt;stroke-linejoin:miter;stroke-miterlimit:4;stroke-dasharray:none;stroke-opacity:1"
           id="path113" />
        <path
           d="M 87.729,383.103 L 483.45,383.103 M 87.729,381.537 L 483.45,381.537 M 87.729,379.969 L 483.45,379.969 M 87.729,378.402 L 483.45,378.402 M 87.729,376.835 L 483.45,376.835"
           style="fill:none;stroke:#231f20;stroke-width:0.30000001;stroke-linecap:round;stroke-linejoin:round;stroke-miterlimit:4;stroke-dasharray:0.022, 1.5237;stroke-dashoffset:0;stroke-opacity:1"
           id="path115" />
        <path
           d="M 87.729,383.097 L 483.45,383.097"
           style="fill:none;stroke:#929090;stroke-width:0.44999999;stroke-linecap:butt;stroke-linejoin:miter;stroke-miterlimit:4;stroke-dasharray:none;stroke-opacity:1"
           id="path117" />
        <path
           d="M 87.729,375.269 L 483.45,375.269 M 87.729,373.701 L 483.45,373.701 M 87.729,372.135 L 483.45,372.135 M 87.729,370.568 L 483.45,370.568 M 87.729,369.001 L 483.45,369.001"
           style="fill:none;stroke:#231f20;stroke-width:0.30000001;stroke-linecap:round;stroke-linejoin:round;stroke-miterlimit:4;stroke-dasharray:0.022, 1.5237;stroke-dashoffset:0;stroke-opacity:1"
           id="path119" />
        <path
           d="M 87.729,375.263 L 483.45,375.263"
           style="fill:none;stroke:#929090;stroke-width:0.44999999;stroke-linecap:butt;stroke-linejoin:miter;stroke-miterlimit:4;stroke-dasharray:none;stroke-opacity:1"
           id="path121" />
        <path
           d="M 87.729,367.435 L 483.45,367.435 M 87.729,365.868 L 483.45,365.868 M 87.729,364.301 L 483.45,364.301 M 87.729,362.734 L 483.45,362.734 M 87.729,361.168 L 483.45,361.168"
           style="fill:none;stroke:#231f20;stroke-width:0.30000001;stroke-linecap:round;stroke-linejoin:round;stroke-miterlimit:4;stroke-dasharray:0.022, 1.5237;stroke-dashoffset:0;stroke-opacity:1"
           id="path123" />
        <path
           d="M 87.729,367.43 L 483.45,367.43"
           style="fill:none;stroke:#929090;stroke-width:0.44999999;stroke-linecap:butt;stroke-linejoin:miter;stroke-miterlimit:4;stroke-dasharray:none;stroke-opacity:1"
           id="path125" />
        <path
           d="M 87.729,359.601 L 483.45,359.601 M 87.729,358.034 L 483.45,358.034 M 87.729,356.467 L 483.45,356.467 M 87.729,354.9 L 483.45,354.9 M 87.729,353.334 L 483.45,353.334"
           style="fill:none;stroke:#231f20;stroke-width:0.30000001;stroke-linecap:round;stroke-linejoin:round;stroke-miterlimit:4;stroke-dasharray:0.022, 1.5237;stroke-dashoffset:0;stroke-opacity:1"
           id="path127" />
        <path
           d="M 87.729,359.596 L 483.45,359.596"
           style="fill:none;stroke:#929090;stroke-width:0.44999999;stroke-linecap:butt;stroke-linejoin:miter;stroke-miterlimit:4;stroke-dasharray:none;stroke-opacity:1"
           id="path129" />
        <path
           d="M 87.729,351.767 L 483.45,351.767 M 87.729,350.2 L 483.45,350.2 M 87.729,348.633 L 483.45,348.633 M 87.729,347.066 L 483.45,347.066 M 87.729,345.5 L 483.45,345.5"
           style="fill:none;stroke:#231f20;stroke-width:0.30000001;stroke-linecap:round;stroke-linejoin:round;stroke-miterlimit:4;stroke-dasharray:0.022, 1.5237;stroke-dashoffset:0;stroke-opacity:1"
           id="path131" />
        <path
           d="M 87.729,351.763 L 483.45,351.763"
           style="fill:none;stroke:#929090;stroke-width:0.44999999;stroke-linecap:butt;stroke-linejoin:miter;stroke-miterlimit:4;stroke-dasharray:none;stroke-opacity:1"
           id="path133" />
        <path
           d="M 87.729,343.932 L 483.45,343.932 M 87.729,342.365 L 483.45,342.365 M 87.729,340.798 L 483.45,340.798 M 87.729,339.232 L 483.45,339.232 M 87.729,337.665 L 483.45,337.665"
           style="fill:none;stroke:#231f20;stroke-width:0.30000001;stroke-linecap:round;stroke-linejoin:round;stroke-miterlimit:4;stroke-dasharray:0.022, 1.5237;stroke-dashoffset:0;stroke-opacity:1"
           id="path135" />
        <path
           d="M 87.729,343.929 L 483.45,343.929"
           style="fill:none;stroke:#929090;stroke-width:0.44999999;stroke-linecap:butt;stroke-linejoin:miter;stroke-miterlimit:4;stroke-dasharray:none;stroke-opacity:1"
           id="path137" />
        <path
           d="M 87.729,336.099 L 483.45,336.099 M 87.729,334.532 L 483.45,334.532 M 87.729,332.965 L 483.45,332.965 M 87.729,331.398 L 483.45,331.398 M 87.729,329.832 L 483.45,329.832"
           style="fill:none;stroke:#231f20;stroke-width:0.30000001;stroke-linecap:round;stroke-linejoin:round;stroke-miterlimit:4;stroke-dasharray:0.022, 1.5237;stroke-dashoffset:0;stroke-opacity:1"
           id="path139" />
        <path
           d="M 87.729,336.095 L 483.45,336.095"
           style="fill:none;stroke:#929090;stroke-width:0.44999999;stroke-linecap:butt;stroke-linejoin:miter;stroke-miterlimit:4;stroke-dasharray:none;stroke-opacity:1"
           id="path141" />
        <path
           d="M 87.729,328.265 L 483.45,328.265 M 87.729,326.698 L 483.45,326.698 M 87.729,325.131 L 483.45,325.131 M 87.729,323.564 L 483.45,323.564 M 87.729,321.998 L 483.45,321.998"
           style="fill:none;stroke:#231f20;stroke-width:0.30000001;stroke-linecap:round;stroke-linejoin:round;stroke-miterlimit:4;stroke-dasharray:0.022, 1.5237;stroke-dashoffset:0;stroke-opacity:1"
           id="path143" />
        <path
           d="M 87.729,328.262 L 483.45,328.262"
           style="fill:none;stroke:#929090;stroke-width:0.44999999;stroke-linecap:butt;stroke-linejoin:miter;stroke-miterlimit:4;stroke-dasharray:none;stroke-opacity:1"
           id="path145" />
        <path
           d="M 87.729,320.431 L 483.45,320.431 M 87.729,318.864 L 483.45,318.864 M 87.729,317.297 L 483.45,317.297 M 87.729,315.73 L 483.45,315.73 M 87.729,314.164 L 483.45,314.164"
           style="fill:none;stroke:#231f20;stroke-width:0.30000001;stroke-linecap:round;stroke-linejoin:round;stroke-miterlimit:4;stroke-dasharray:0.022, 1.5237;stroke-dashoffset:0;stroke-opacity:1"
           id="path147" />
        <path
           d="M 87.729,320.429 L 483.45,320.429"
           style="fill:none;stroke:#929090;stroke-width:0.44999999;stroke-linecap:butt;stroke-linejoin:miter;stroke-miterlimit:4;stroke-dasharray:none;stroke-opacity:1"
           id="path149" />
        <path
           d="M 87.729,312.597 L 483.45,312.597 M 87.729,311.03 L 483.45,311.03 M 87.729,309.462 L 483.45,309.462 M 87.729,307.896 L 483.45,307.896 M 87.729,306.33 L 483.45,306.33"
           style="fill:none;stroke:#231f20;stroke-width:0.30000001;stroke-linecap:round;stroke-linejoin:round;stroke-miterlimit:4;stroke-dasharray:0.022, 1.5237;stroke-dashoffset:0;stroke-opacity:1"
           id="path151" />
        <path
           d="M 87.729,312.596 L 483.45,312.596"
           style="fill:none;stroke:#929090;stroke-width:0.44999999;stroke-linecap:butt;stroke-linejoin:miter;stroke-miterlimit:4;stroke-dasharray:none;stroke-opacity:1"
           id="path153" />
        <path
           d="M 87.729,304.762 L 483.45,304.762 M 87.729,303.196 L 483.45,303.196 M 87.729,301.628 L 483.45,301.628 M 87.729,300.062 L 483.45,300.062 M 87.729,298.495 L 483.45,298.495"
           style="fill:none;stroke:#231f20;stroke-width:0.30000001;stroke-linecap:round;stroke-linejoin:round;stroke-miterlimit:4;stroke-dasharray:0.022, 1.5237;stroke-dashoffset:0;stroke-opacity:1"
           id="path155" />
        <path
           d="M 87.729,304.762 L 483.45,304.762"
           style="fill:none;stroke:#929090;stroke-width:0.44999999;stroke-linecap:butt;stroke-linejoin:miter;stroke-miterlimit:4;stroke-dasharray:none;stroke-opacity:1"
           id="path157" />
        <path
           d="M 87.729,296.929 L 483.45,296.929 M 87.729,295.362 L 483.45,295.362 M 87.729,293.794 L 483.45,293.794 M 87.729,292.228 L 483.45,292.228 M 87.729,290.661 L 483.45,290.661"
           style="fill:none;stroke:#231f20;stroke-width:0.30000001;stroke-linecap:round;stroke-linejoin:round;stroke-miterlimit:4;stroke-dasharray:0.022, 1.5237;stroke-dashoffset:0;stroke-opacity:1"
           id="path159" />
        <path
           d="M 87.729,296.929 L 483.45,296.929"
           style="fill:none;stroke:#929090;stroke-width:0.44999999;stroke-linecap:butt;stroke-linejoin:miter;stroke-miterlimit:4;stroke-dasharray:none;stroke-opacity:1"
           id="path161" />
        <path
           d="M 87.729,289.094 L 483.45,289.094 M 87.729,287.527 L 483.45,287.527 M 87.729,285.96 L 483.45,285.96 M 87.729,284.394 L 483.45,284.394 M 87.729,282.827 L 483.45,282.827"
           style="fill:none;stroke:#231f20;stroke-width:0.30000001;stroke-linecap:round;stroke-linejoin:round;stroke-miterlimit:4;stroke-dasharray:0.022, 1.5237;stroke-dashoffset:0;stroke-opacity:1"
           id="path163" />
        <path
           d="M 87.729,289.094 L 483.45,289.094"
           style="fill:none;stroke:#929090;stroke-width:0.44999999;stroke-linecap:butt;stroke-linejoin:miter;stroke-miterlimit:4;stroke-dasharray:none;stroke-opacity:1"
           id="path165" />
        <path
           d="M 87.729,281.26 L 483.45,281.26 M 87.729,279.693 L 483.45,279.693 M 87.729,278.127 L 483.45,278.127 M 87.729,276.56 L 483.45,276.56 M 87.729,274.992 L 483.45,274.992"
           style="fill:none;stroke:#231f20;stroke-width:0.30000001;stroke-linecap:round;stroke-linejoin:round;stroke-miterlimit:4;stroke-dasharray:0.022, 1.5237;stroke-dashoffset:0;stroke-opacity:1"
           id="path167" />
        <path
           d="M 87.729,281.261 L 483.45,281.261"
           style="fill:none;stroke:#929090;stroke-width:0.44999999;stroke-linecap:butt;stroke-linejoin:miter;stroke-miterlimit:4;stroke-dasharray:none;stroke-opacity:1"
           id="path169" />
        <path
           d="M 87.729,273.426 L 483.45,273.426 M 87.729,271.859 L 483.45,271.859 M 87.729,270.292 L 483.45,270.292 M 87.729,268.726 L 483.45,268.726 M 87.729,267.159 L 483.45,267.159"
           style="fill:none;stroke:#231f20;stroke-width:0.30000001;stroke-linecap:round;stroke-linejoin:round;stroke-miterlimit:4;stroke-dasharray:0.022, 1.5237;stroke-dashoffset:0;stroke-opacity:1"
           id="path171" />
        <path
           d="M 87.729,273.426 L 483.45,273.426"
           style="fill:none;stroke:#929090;stroke-width:0.44999999;stroke-linecap:butt;stroke-linejoin:miter;stroke-miterlimit:4;stroke-dasharray:none;stroke-opacity:1"
           id="path173" />
        <path
           d="M 87.729,265.592 L 483.45,265.592 M 87.729,264.025 L 483.45,264.025 M 87.729,262.458 L 483.45,262.458 M 87.729,260.892 L 483.45,260.892 M 87.729,259.325 L 483.45,259.325"
           style="fill:none;stroke:#231f20;stroke-width:0.30000001;stroke-linecap:round;stroke-linejoin:round;stroke-miterlimit:4;stroke-dasharray:0.022, 1.5237;stroke-dashoffset:0;stroke-opacity:1"
           id="path175" />
        <path
           d="M 87.729,265.593 L 483.45,265.593"
           style="fill:none;stroke:#929090;stroke-width:0.44999999;stroke-linecap:butt;stroke-linejoin:miter;stroke-miterlimit:4;stroke-dasharray:none;stroke-opacity:1"
           id="path177" />
        <path
           d="M 87.729,257.758 L 483.45,257.758 M 87.729,256.191 L 483.45,256.191 M 87.729,254.624 L 483.45,254.624 M 87.729,253.058 L 483.45,253.058 M 87.729,251.491 L 483.45,251.491"
           style="fill:none;stroke:#231f20;stroke-width:0.30000001;stroke-linecap:round;stroke-linejoin:round;stroke-miterlimit:4;stroke-dasharray:0.022, 1.5237;stroke-dashoffset:0;stroke-opacity:1"
           id="path179" />
        <path
           d="M 87.729,257.761 L 483.45,257.761"
           style="fill:none;stroke:#929090;stroke-width:0.44999999;stroke-linecap:butt;stroke-linejoin:miter;stroke-miterlimit:4;stroke-dasharray:none;stroke-opacity:1"
           id="path181" />
        <path
           d="M 87.729,249.926 L 483.45,249.926 M 87.729,248.359 L 483.45,248.359 M 87.729,246.795 L 483.45,246.795 M 87.729,245.227 L 483.45,245.227 M 87.729,243.662 L 483.45,243.662"
           style="fill:none;stroke:#231f20;stroke-width:0.30000001;stroke-linecap:round;stroke-linejoin:round;stroke-miterlimit:4;stroke-dasharray:0.022, 1.5237;stroke-dashoffset:0;stroke-opacity:1"
           id="path183" />
        <path
           d="M 87.729,249.929 L 483.45,249.929"
           style="fill:none;stroke:#929090;stroke-width:0.44999999;stroke-linecap:butt;stroke-linejoin:miter;stroke-miterlimit:4;stroke-dasharray:none;stroke-opacity:1"
           id="path185" />
        <path
           d="M 87.729,242.094 L 483.45,242.094 M 87.729,240.526 L 483.45,240.526 M 87.729,238.962 L 483.45,238.962 M 87.729,237.395 L 483.45,237.395 M 87.729,235.828 L 483.45,235.828"
           style="fill:none;stroke:#231f20;stroke-width:0.30000001;stroke-linecap:round;stroke-linejoin:round;stroke-miterlimit:4;stroke-dasharray:0.022, 1.5237;stroke-dashoffset:0;stroke-opacity:1"
           id="path187" />
        <path
           d="M 87.729,242.097 L 483.45,242.097"
           style="fill:none;stroke:#929090;stroke-width:0.44999999;stroke-linecap:butt;stroke-linejoin:miter;stroke-miterlimit:4;stroke-dasharray:none;stroke-opacity:1"
           id="path189" />
        <path
           d="M 87.729,234.262 L 483.45,234.262 M 87.729,232.696 L 483.45,232.696 M 87.729,231.128 L 483.45,231.128 M 87.729,229.563 L 483.45,229.563 M 87.729,227.994 L 483.45,227.994"
           style="fill:none;stroke:#231f20;stroke-width:0.30000001;stroke-linecap:round;stroke-linejoin:round;stroke-miterlimit:4;stroke-dasharray:0.022, 1.5237;stroke-dashoffset:0;stroke-opacity:1"
           id="path191" />
        <path
           d="M 87.729,234.264 L 483.45,234.264"
           style="fill:none;stroke:#929090;stroke-width:0.44999999;stroke-linecap:butt;stroke-linejoin:miter;stroke-miterlimit:4;stroke-dasharray:none;stroke-opacity:1"
           id="path193" />
        <path
           d="M 87.729,226.431 L 483.45,226.431 M 87.729,224.862 L 483.45,224.862 M 87.729,223.299 L 483.45,223.299 M 87.729,221.73 L 483.45,221.73 M 87.729,220.165 L 483.45,220.165"
           style="fill:none;stroke:#231f20;stroke-width:0.30000001;stroke-linecap:round;stroke-linejoin:round;stroke-miterlimit:4;stroke-dasharray:0.022, 1.5237;stroke-dashoffset:0;stroke-opacity:1"
           id="path195" />
        <path
           d="M 87.729,226.435 L 483.45,226.435"
           style="fill:none;stroke:#929090;stroke-width:0.44999999;stroke-linecap:butt;stroke-linejoin:miter;stroke-miterlimit:4;stroke-dasharray:none;stroke-opacity:1"
           id="path197" />
        <path
           d="M 87.729,218.598 L 483.45,218.598 M 87.729,217.033 L 483.45,217.033 M 87.729,215.464 L 483.45,215.464 M 87.729,213.9 L 483.45,213.9 M 87.729,212.33 L 483.45,212.33"
           style="fill:none;stroke:#231f20;stroke-width:0.30000001;stroke-linecap:round;stroke-linejoin:round;stroke-miterlimit:4;stroke-dasharray:0.022, 1.5237;stroke-dashoffset:0;stroke-opacity:1"
           id="path199" />
        <path
           d="M 87.729,218.599 L 483.45,218.599"
           style="fill:none;stroke:#929090;stroke-width:0.44999999;stroke-linecap:butt;stroke-linejoin:miter;stroke-miterlimit:4;stroke-dasharray:none;stroke-opacity:1"
           id="path201" />
        <path
           d="M 87.729,210.762 L 483.45,210.762 M 87.729,209.198 L 483.45,209.198 M 87.729,207.628 L 483.45,207.628 M 87.729,206.065 L 483.45,206.065 M 87.729,204.495 L 483.45,204.495"
           style="fill:none;stroke:#231f20;stroke-width:0.30000001;stroke-linecap:round;stroke-linejoin:round;stroke-miterlimit:4;stroke-dasharray:0.022, 1.5237;stroke-dashoffset:0;stroke-opacity:1"
           id="path203" />
        <path
           d="M 87.729,210.764 L 483.45,210.764 M 396.885,445.666 L 396.885,202.945 M 404.616,445.666 L 404.616,202.945 M 412.339,445.666 L 412.339,202.945 M 420.071,445.666 L 420.071,202.945 M 427.795,445.666 L 427.795,202.945 M 435.529,445.666 L 435.529,202.945 M 443.252,445.666 L 443.252,202.945 M 450.983,445.666 L 450.983,202.945 M 458.708,445.666 L 458.708,202.945 M 466.438,445.666 L 466.438,202.945 M 474.165,445.666 L 474.165,202.945 M 481.895,445.666 L 481.895,202.945 M 389.161,445.668 L 389.161,202.945 M 381.428,445.666 L 381.428,202.945 M 373.707,445.666 L 373.707,202.945 M 365.973,445.666 L 365.973,202.945 M 358.251,445.666 L 358.251,202.945 M 350.517,445.668 L 350.517,202.945 M 342.797,445.666 L 342.797,202.945 M 335.062,445.666 L 335.062,202.945 M 327.339,445.666 L 327.339,202.945 M 319.608,445.668 L 319.608,202.945 M 311.881,445.666 L 311.881,202.945 M 304.153,445.666 L 304.153,202.945 M 296.425,445.666 L 296.425,202.945 M 288.697,445.668 L 288.697,202.945 M 280.969,445.666 L 280.969,202.945 M 273.242,445.666 L 273.242,202.945 M 265.514,445.666 L 265.514,202.945 M 257.786,445.666 L 257.786,202.945 M 250.059,445.666 L 250.059,202.945 M 242.331,445.666 L 242.331,202.945 M 234.602,445.666 L 234.602,202.945 M 226.875,445.666 L 226.875,202.945 M 219.146,445.666 L 219.146,202.945 M 211.418,445.666 L 211.418,202.945 M 203.69,445.666 L 203.69,202.945 M 195.963,445.666 L 195.963,202.945 M 188.235,445.666 L 188.235,202.945 M 180.508,445.666 L 180.508,202.945 M 172.78,445.666 L 172.78,202.945 M 165.052,445.666 L 165.052,202.945 M 157.324,445.666 L 157.324,202.945 M 149.596,445.666 L 149.596,202.945 M 141.868,445.666 L 141.868,202.945 M 134.141,445.666 L 134.141,202.945 M 126.413,445.666 L 126.413,202.945 M 118.685,445.666 L 118.685,202.945 M 110.959,445.666 L 110.959,202.945 M 103.232,445.666 L 103.232,202.945 M 95.504,445.666 L 95.504,202.945"
           style="fill:none;stroke:#929090;stroke-width:0.44999999;stroke-linecap:butt;stroke-linejoin:miter;stroke-miterlimit:4;stroke-dasharray:none;stroke-opacity:1"
           id="path205" />
        <path
           d="M 483.495,202.927 L 87.725,202.927 L 87.725,445.775 L 483.495,445.775 L 483.495,202.927 z"
           style="fill:none;stroke:#231f20;stroke-width:0.44999999;stroke-linecap:butt;stroke-linejoin:miter;stroke-miterlimit:4;stroke-dasharray:none;stroke-opacity:1"
           id="path207" />
      </g>
    </g>
    <text
       id="text209"
       x="172.28775"
       y="299.72269"
       style="font-size:44.78975677px">
      <tspan
         style="font-size:29.85983658px;font-variant:normal;font-weight:300;writing-mode:lr-tb;fill:#231f20;fill-opacity:1;fill-rule:nonzero;stroke:none;font-family:Frutiger;-inkscape-font-specification:Frutiger-Light"
         x="172.28775 533.59167 548.52167 566.76593 892.53674 910.78119 1248.257 1266.5012"
         y="299.72269"
         sodipodi:role="line"
         id="tspan211">IaVRV1V4</tspan>
      <tspan
         style="font-size:29.85983658px;font-variant:normal;font-weight:300;writing-mode:lr-tb;fill:#231f20;fill-opacity:1;fill-rule:nonzero;stroke:none;font-family:Frutiger;-inkscape-font-specification:Frutiger-Light"
         x="172.28775 178.91656"
         y="443.60535"
         sodipodi:role="line"
         id="tspan213">II</tspan>
      <tspan
         style="font-size:29.85983658px;font-variant:normal;font-weight:300;writing-mode:lr-tb;fill:#231f20;fill-opacity:1;fill-rule:nonzero;stroke:none;font-family:Frutiger;-inkscape-font-specification:Frutiger-Light"
         x="172.28775 178.91656"
         y="873.72144"
         sodipodi:role="line"
         id="tspan215">II</tspan>
      <tspan
         style="font-size:29.85983658px;font-variant:normal;font-weight:300;writing-mode:lr-tb;fill:#231f20;fill-opacity:1;fill-rule:nonzero;stroke:none;font-family:Frutiger;-inkscape-font-specification:Frutiger-Light"
         x="533.58575 548.51563 566.76001 892.53076 910.77539 1248.2511 1266.4955"
         y="443.60535"
         sodipodi:role="line"
         id="tspan217">aVLV2V5</tspan>
      <tspan
         style="font-size:29.85983658px;font-variant:normal;font-weight:300;writing-mode:lr-tb;fill:#231f20;fill-opacity:1;fill-rule:nonzero;stroke:none;font-family:Frutiger;-inkscape-font-specification:Frutiger-Light"
         x="172.28775 178.91656 185.54535"
         y="591.86261"
         sodipodi:role="line"
         id="tspan219">III</tspan>
      <tspan
         style="font-size:29.85983658px;font-variant:normal;font-weight:300;writing-mode:lr-tb;fill:#231f20;fill-opacity:1;fill-rule:nonzero;stroke:none;font-family:Frutiger;-inkscape-font-specification:Frutiger-Light"
         x="172.28775 190.53194"
         y="729.77301"
         sodipodi:role="line"
         id="tspan221">V1</tspan>
      <tspan
         style="font-size:29.85983658px;font-variant:normal;font-weight:300;writing-mode:lr-tb;fill:#231f20;fill-opacity:1;fill-rule:nonzero;stroke:none;font-family:Frutiger;-inkscape-font-specification:Frutiger-Light"
         x="172.28775 190.53194"
         y="1022.5607"
         sodipodi:role="line"
         id="tspan223">V5</tspan>
      <tspan
         style="font-size:29.85983658px;font-variant:normal;font-weight:300;writing-mode:lr-tb;fill:#231f20;fill-opacity:1;fill-rule:nonzero;stroke:none;font-family:Frutiger;-inkscape-font-specification:Frutiger-Light"
         x="533.58575 548.51563 566.76001 892.53076 910.77539 1248.2511 1266.4955"
         y="591.86261"
         sodipodi:role="line"
         id="tspan225">aVFV3V6</tspan>
    </text>
    <g
       transform="matrix(3.73248,0,0,-3.73248,-195.16677,1822.9958)"
       id="g227">
      <g
         id="g229"
         clip-path="url(#clipPath231)">
        <path
           d="M 87.869,417.706 L 88.565,417.706 L 88.565,433.377 L 96.221,433.377 L 96.221,417.805 L 97.116,417.805"
           style="fill:none;stroke:#231f20;stroke-width:0.79500002;stroke-linecap:butt;stroke-linejoin:miter;stroke-miterlimit:4;stroke-dasharray:none;stroke-opacity:1"
           id="path235" />
        <path
           d="M 97.812,419.396 C 98.31,421.186 99.503,422.877 100.199,422.877 C 101.292,422.877 102.387,417.407 104.176,416.413 C 105.966,415.419 106.364,416.214 107.06,416.015 C 107.756,415.816 111.137,416.512 112.529,416.314 C 113.921,416.115 117.401,416.512 119.39,416.115 C 121.379,415.717 125.456,416.015 126.351,416.115 C 127.246,416.214 127.743,416.214 128.34,416.015 C 128.936,415.816 130.428,416.711 131.323,416.711 C 132.218,416.711 132.416,415.816 134.206,415.816 C 135.367,415.816 136.096,416.744 136.096,418.601 C 136.096,420.457 136.56,423.772 136.56,423.772 C 136.56,423.772 137.024,418.534 137.024,416.545 C 137.024,414.557 137.355,409.253 137.355,409.253 C 137.355,409.253 137.952,412.104 138.151,413.628 C 138.35,415.153 138.681,415.021 140.272,415.021 C 141.863,415.021 143.52,414.292 144.979,417.672 C 146.438,421.053 147.498,423.175 148.028,423.175 C 149.155,423.175 150.282,417.408 152.006,416.678 C 153.729,415.949 156.116,416.148 157.508,416.48 C 158.9,416.811 171.761,416.545 174.876,416.545 C 177.992,416.545 179.318,417.474 180.047,417.474 C 180.776,417.474 180.511,416.413 182.633,416.413 C 184.489,416.413 184.555,417.805 184.887,420.457 C 185.207,423.023 185.417,423.904 185.417,423.904 L 186.146,409.917 L 187.339,415.485 C 187.339,415.485 190.588,414.69 192.643,416.413 M 194.101,416.877 C 195.095,414.822 196.223,412.369 197.416,412.369 C 198.609,412.369 199.604,417.872 201.393,417.872 C 203.183,417.872 210.343,417.872 210.939,418.07 C 211.536,418.269 212.862,417.672 213.724,417.938 C 214.585,418.203 224.463,418.07 225.789,418.07 C 227.777,418.07 228.573,416.943 228.971,416.943 C 229.567,416.943 230.562,418.335 231.423,418.335 C 232.285,418.335 233.081,418.335 233.544,418.335 C 234.009,418.335 234.605,411.507 234.804,408.325 C 235.202,414.424 235.666,422.247 235.998,422.247 C 236.329,422.247 236.196,419.131 236.925,419.131 C 237.655,419.131 239.776,419.131 240.704,419.131 C 241.632,419.131 242.759,418.269 243.488,416.744 C 244.217,415.22 245.676,412.369 246.737,412.369 C 247.797,412.369 248.924,418.07 251.245,418.07 C 253.564,418.07 263.11,418.07 266.094,418.07 C 269.077,418.07 274.911,418.137 275.905,417.672 C 276.899,417.209 276.9,416.678 277.364,416.678 C 277.827,416.678 278.756,418.004 279.75,418.004 C 280.745,418.004 281.142,418.004 281.739,418.004 C 282.6,418.004 283.064,412.833 283.263,407.663 C 283.396,413.231 284.059,421.584 284.324,421.584 C 284.589,421.584 284.788,419.86 284.788,419.264 C 284.788,418.667 284.987,418.535 286.379,418.733 C 287.771,418.932 288.964,418.799 289.76,418.468 M 290.821,427.252 C 291.715,429.24 292.412,431.726 293.406,431.726 C 294.4,431.726 295.494,427.252 295.991,423.97 C 296.489,420.689 296.886,415.916 298.378,415.916 C 299.87,415.916 299.77,416.711 303.151,416.115 C 306.532,415.518 312.697,415.617 316.774,415.617 C 320.851,415.617 323.734,415.617 323.734,415.617 L 325.425,416.678 L 326.419,415.419 C 326.419,415.419 327.415,415.75 328.143,415.551 C 328.872,415.352 329.866,415.75 330.596,415.75 C 331.325,415.75 332.054,398.846 332.385,397.387 C 332.849,402.492 333.38,414.159 333.579,416.678 C 333.778,419.197 334.705,419.661 336.429,421.451 C 338.153,423.241 340.87,431.859 341.998,431.859 C 344.252,431.859 345.113,416.214 347.168,416.214 C 349.224,416.214 350.183,416.923 353.002,416.082 C 354.752,415.559 358.504,415.684 363.145,415.684 C 367.786,415.684 371.497,415.352 372.028,415.551 C 372.558,415.75 373.42,415.617 373.42,415.617 C 373.42,415.617 374.68,416.545 375.078,416.545 C 375.475,416.545 375.012,415.485 376.072,415.485 C 377.132,415.485 378.723,415.419 379.519,415.617 C 380.315,415.816 380.711,415.551 380.711,413.628 C 380.711,411.707 381.506,397.453 381.772,397.453 C 382.038,397.453 382.767,414.093 382.965,416.612 C 383.165,419.131 383.032,418.601 383.959,419.595 C 384.889,420.589 385.75,421.186 386.082,421.981 M 387.34,417.938 C 389.86,422.711 391.053,432.787 392.247,432.787 C 393.971,432.787 394.633,416.015 397.484,416.015 C 400.334,416.015 410.211,416.082 412.93,416.082 C 415.648,416.082 422.542,416.015 423.206,416.015 C 423.868,416.015 424.596,416.545 425.327,416.545 C 426.055,416.545 426.719,416.28 427.381,416.082 C 428.044,415.883 429.833,416.015 430.099,415.75 C 430.696,417.54 431.36,432.919 431.36,432.919 L 432.022,406.8 C 432.022,406.8 432.751,413.43 432.95,414.69 C 433.149,415.949 434.625,415.782 435.403,416.28 C 439.844,419.131 440.639,432.721 442.165,432.721 C 443.69,432.721 444.485,416.214 447.335,416.214 C 450.186,416.214 472.062,416.214 472.858,416.214 C 473.653,416.214 474.713,417.009 475.244,417.009 C 475.774,417.009 478.889,416.081 479.62,416.214 C 480.348,416.347 481.079,428.876 481.342,431.263 C 481.741,421.65 481.807,407.596 482.073,407.596 C 482.337,407.596 482.668,414.491 483.067,415.286 M 88.135,379.469 L 88.802,379.469 L 88.944,395.087 L 96.468,395.087 L 96.468,379.278 L 97.134,379.278 M 98.182,378.993 C 98.943,380.421 100.658,382.992 101.42,382.992 C 102.182,382.992 103.134,378.041 104.372,377.945 C 105.61,377.85 114.467,378.135 116.658,377.659 C 118.848,377.183 127.324,377.944 128.752,377.85 C 130.181,377.754 129.514,378.707 130.086,378.707 C 130.657,378.707 130.848,379.944 131.133,379.85 C 131.419,379.754 132.371,378.041 133.514,377.945 C 134.657,377.85 135.8,377.278 135.8,377.278 C 135.8,377.278 136.561,381.087 136.561,383.373 C 136.561,385.659 136.942,393.373 136.942,393.373 C 136.942,393.373 137.609,375.183 138.085,375.183 C 138.561,375.183 138.561,377.469 139.038,377.469 C 139.514,377.469 142.561,376.231 144.371,377.659 C 146.181,379.088 148.276,383.468 149.418,383.373 C 150.562,383.278 150.18,378.707 153.418,378.516 C 156.656,378.326 176.274,378.326 177.417,378.326 C 178.56,378.326 178.274,379.373 178.846,379.373 C 179.417,379.373 179.798,380.421 179.798,380.421 C 179.798,380.421 181.417,378.421 182.37,378.421 C 183.322,378.421 184.37,378.23 184.465,377.85 C 184.56,377.469 185.607,390.802 185.703,393.468 C 186.179,387.373 186.465,375.754 187.036,375.754 C 187.607,375.754 187.417,378.135 187.703,378.135 C 187.989,378.135 190.941,377.183 192.846,378.04 M 194.274,380.326 C 195.036,382.04 195.703,383.183 196.655,383.183 C 198.083,383.183 198.464,380.04 200.179,379.278 C 201.893,378.516 203.988,378.326 205.607,378.707 C 207.226,379.088 214.75,378.993 218.75,378.993 C 222.75,378.993 228.369,378.612 229.417,378.898 C 230.464,379.183 232.463,378.993 233.321,378.993 C 234.178,378.993 234.845,381.088 234.654,383.183 C 235.321,379.373 235.606,368.421 235.606,368.421 C 235.606,368.421 236.083,375.183 236.369,376.516 C 236.654,377.85 236.559,378.23 238.94,378.326 C 241.32,378.421 242.083,378.421 243.702,380.897 C 245.321,383.373 245.511,383.564 246.273,383.564 C 247.035,383.564 248.178,379.564 250.368,379.183 C 252.559,378.802 253.511,378.421 255.416,378.898 C 257.32,379.373 260.082,378.898 263.32,379.088 C 266.558,379.278 278.558,378.993 280.177,379.088 C 281.795,379.183 281.795,378.898 282.462,380.611 C 283.129,382.326 283.033,383.373 283.033,383.373 L 283.986,368.898 C 283.986,368.898 284.652,378.04 285.415,378.231 C 286.177,378.421 288.938,378.707 289.795,379.088 M 290.842,394.897 C 291.318,398.611 292.747,409.087 293.795,409.182 C 294.842,409.277 295.319,401.659 295.89,394.802 C 296.461,387.945 296.843,375.944 299.319,376.135 C 301.794,376.326 307.319,375.469 309.985,375.469 C 312.651,375.469 322.746,375.565 323.603,375.374 C 324.461,375.183 325.127,376.517 325.794,376.326 C 326.46,376.135 326.366,375.469 326.746,375.564 C 327.127,375.659 330.556,374.802 331.127,376.707 C 331.127,376.707 331.508,373.278 331.793,369.754 C 332.079,366.231 332.936,347.088 332.936,347.088 C 332.936,347.088 333.507,370.707 333.793,375.183 C 334.079,379.659 335.016,380.031 335.984,381.85 C 339.888,389.183 341.126,409.373 342.46,409.373 C 343.793,409.373 345.602,386.802 345.888,382.516 C 346.174,378.231 346.65,376.421 348.459,376.421 C 350.268,376.421 353.602,375.945 354.364,375.66 C 355.126,375.374 360.364,375.565 363.221,375.754 C 366.079,375.945 373.031,375.183 375.412,376.231 C 376.364,375.469 377.506,375.469 378.649,375.469 C 379.792,375.469 380.459,375.469 380.745,376.802 C 381.031,373.088 382.364,346.994 382.364,346.994 C 382.84,365.184 383.221,374.707 383.221,376.612 C 383.221,379.374 385.698,381.565 386.364,383.755 M 387.696,378.802 C 389.601,380.898 391.411,390.421 392.838,390.421 C 394.268,390.421 394.839,377.85 398.077,377.85 C 401.315,377.85 421.505,377.85 422.838,377.85 C 424.172,377.85 425.219,378.802 425.696,378.326 C 426.649,378.612 427.696,377.754 427.696,377.754 C 427.696,377.754 429.6,377.945 430.267,377.66 C 430.934,379.278 431.6,396.421 431.6,396.421 C 431.6,396.421 431.981,372.231 432.648,372.231 C 433.315,372.231 432.362,377.469 434.171,377.469 C 435.981,377.469 438.075,377.945 439.409,382.326 C 440.743,386.707 441.504,390.517 442.552,390.517 C 443.599,390.517 444.553,386.707 444.934,384.326 C 445.315,381.945 445.696,378.04 449.029,378.04 C 452.362,378.04 471.409,377.85 473.124,378.135 C 474.838,378.421 475.982,378.803 477.029,378.231 C 478.077,377.659 479.409,378.231 479.981,377.754 C 481.219,378.707 481.125,393.85 481.505,393.85 C 481.885,393.85 481.981,372.802 482.458,372.802 C 482.934,372.802 483.005,377.183 483.315,377.183 M 88.167,340.973 L 88.83,340.973 L 88.83,356.353 L 96.52,356.353 L 96.52,340.84 L 97.315,340.84 M 98.21,338.454 C 99.702,337.459 99.801,337.559 100.995,339.448 C 102.188,341.337 103.182,341.835 103.977,341.139 C 104.773,340.442 107.358,341.139 108.253,341.139 C 109.148,341.139 116.407,340.642 117.7,340.741 C 118.993,340.84 121.578,341.039 122.274,340.94 C 122.97,340.84 123.865,341.139 124.461,340.94 C 125.058,340.741 126.351,340.741 127.345,340.741 C 128.34,340.741 130.229,341.139 130.726,342.034 C 132.814,340.741 134.604,340.741 135.201,340.642 C 135.797,340.542 135.599,339.846 136.096,339.548 C 136.593,339.25 136.692,338.056 136.692,338.056 C 136.692,338.056 137.09,355.259 137.389,355.259 C 137.687,355.259 137.389,348.895 137.687,347.503 C 137.985,346.11 138.482,340.741 138.482,340.741 C 138.482,340.741 138.084,341.537 139.676,341.238 C 141.267,340.94 144.051,340.94 145.344,339.747 C 146.636,338.553 146.537,338.156 147.531,338.156 C 148.525,338.156 149.42,341.537 150.514,341.537 C 151.608,341.537 151.807,340.94 153.796,341.139 C 155.785,341.337 159.066,341.238 161.651,341.039 C 164.237,340.84 165.927,340.642 167.319,340.84 C 168.711,341.039 172.689,340.84 173.286,340.741 C 173.882,340.642 176.07,341.139 176.865,340.84 C 177.661,340.542 179.451,341.934 179.749,341.934 C 180.047,341.934 181.141,341.139 182.036,340.94 C 182.931,340.741 184.025,340.741 184.025,340.741 C 184.025,340.741 185.218,338.752 185.516,338.752 C 185.814,338.752 185.715,355.159 186.113,355.159 C 186.511,355.159 186.71,341.437 187.306,341.636 C 188.897,341.537 191.383,341.437 193.173,340.542 M 194.665,340.045 C 196.753,340.741 197.847,343.028 198.94,343.028 C 199.736,343.028 200.134,340.741 201.923,340.741 C 203.713,340.741 207.989,340.84 210.077,340.642 C 212.166,340.442 225.192,340.741 226.684,340.442 C 228.175,340.145 228.771,341.934 229.567,341.636 C 230.363,341.337 231.357,340.442 232.65,340.442 C 233.942,340.442 233.942,339.647 234.241,339.647 C 234.539,339.647 234.837,340.642 234.837,342.332 C 234.837,344.022 235.334,354.364 235.334,354.364 C 235.334,354.364 236.229,339.448 236.627,339.448 C 237.025,339.448 237.025,340.642 237.622,340.642 C 238.218,340.642 241.102,340.045 241.997,340.145 C 242.892,340.244 242.962,339.726 243.687,339.945 C 246.969,340.94 247.167,343.326 248.062,343.326 C 248.958,343.326 249.554,340.642 251.344,340.642 C 253.134,340.642 254.725,341.039 255.918,340.741 C 257.111,340.442 259.299,340.84 260.592,340.542 C 261.884,340.244 265.464,340.442 267.453,340.442 C 269.441,340.442 273.32,340.244 274.712,340.343 C 276.104,340.442 277.396,341.437 277.595,341.835 C 278.888,341.039 279.286,340.343 280.579,340.343 C 281.871,340.343 282.369,339.747 282.567,339.349 C 283.661,340.642 283.562,354.265 283.86,354.265 C 284.158,354.265 283.761,347.702 284.258,345.713 C 284.755,343.724 284.655,339.15 285.053,339.15 C 285.451,339.15 284.755,341.039 286.147,340.542 C 287.539,340.045 289.13,339.846 290.025,339.846 M 291.119,350.784 C 291.915,354.364 292.909,363.91 294.002,363.91 C 295.096,363.91 295.991,354.762 296.688,348.696 C 297.383,342.63 297.682,338.056 300.267,338.056 C 302.853,338.056 319.956,337.857 321.646,337.857 C 323.336,337.857 324.331,337.857 325.126,338.255 C 325.922,338.653 325.922,338.852 326.618,338.354 C 327.314,337.857 328.507,337.36 329.204,337.658 C 329.899,337.957 330.993,337.758 330.993,337.758 C 330.993,337.758 332.087,343.426 332.385,345.315 C 332.684,338.752 332.684,319.66 333.082,319.66 C 333.479,319.66 333.877,335.272 333.977,337.36 C 334.076,339.448 336.191,339.348 337.159,341.835 C 340.639,350.784 341.732,363.811 342.727,363.811 C 343.721,363.811 344.915,354.96 345.412,349.293 C 345.909,343.625 345.81,338.553 349.389,338.056 C 352.969,337.559 371.663,337.758 373.254,337.758 C 374.845,337.758 375.243,338.653 375.84,338.653 C 376.436,338.653 376.735,337.758 377.729,337.559 C 378.723,337.36 379.419,337.957 380.513,337.559 C 381.11,339.448 381.409,345.613 381.806,345.613 C 382.204,345.613 382.303,320.157 382.701,320.157 C 383.098,320.157 383.198,333.979 383.198,336.266 C 383.198,338.553 383.497,338.553 384.79,339.647 C 386.082,340.741 386.678,341.835 386.678,341.835 M 387.772,339.448 C 391.053,340.343 391.352,346.807 393.54,346.807 C 395.727,346.807 395.13,339.945 398.511,339.945 C 401.892,339.945 420.686,339.846 422.376,339.747 C 424.067,339.647 425.061,340.442 426.155,340.442 C 427.249,340.442 427.448,339.647 428.342,339.647 C 429.238,339.647 430.232,339.846 430.629,339.647 C 430.928,341.337 431.525,354.463 431.823,354.463 C 432.122,354.463 432.122,342.531 432.321,341.039 C 432.519,339.548 432.717,336.465 433.016,336.465 C 433.315,336.465 432.917,339.25 434.01,339.15 C 435.104,339.05 438.784,338.752 440.176,341.636 C 441.568,344.52 442.364,346.608 443.458,346.608 C 444.551,346.608 445.943,339.945 447.833,339.945 C 449.721,339.945 460.561,339.846 462.151,339.747 C 463.743,339.647 470.604,339.747 471.897,339.548 C 473.189,339.349 475.278,340.542 476.967,339.945 C 478.659,339.349 480.647,338.752 480.846,340.542 C 481.044,342.332 481.84,353.071 481.84,353.071 L 482.735,335.968 L 483.624,338.752"
           style="fill:none;stroke:#231f20;stroke-width:0.79500002;stroke-linecap:round;stroke-linejoin:round;stroke-miterlimit:4;stroke-dasharray:none;stroke-opacity:1"
           id="path237" />
        <path
           d="M 88.005,302.391 L 88.878,302.391 L 88.878,318.089 L 96.518,318.089 L 96.518,302.259 L 97.325,302.259 M 97.919,314.987 C 98.416,315.881 100.201,317.87 101.29,310.81 C 102.382,303.75 102.282,299.972 104.861,300.27 C 107.437,300.568 109.421,300.27 112.691,299.972 C 115.963,299.673 127.365,299.872 128.554,299.872 C 129.743,299.872 130.536,300.867 130.536,300.867 C 130.536,300.867 131.033,299.375 131.826,299.673 C 132.62,299.972 133.708,299.475 134.206,299.772 C 134.701,300.071 135.989,300.17 136.088,298.679 C 136.187,297.188 137.08,281.377 137.378,281.377 C 137.674,281.377 138.408,297.488 138.567,300.27 C 138.766,303.75 140.352,304.148 142.334,307.23 C 144.318,310.313 145.904,315.881 146.994,315.881 C 148.085,315.881 148.977,311.208 149.572,307.429 C 150.166,303.651 150.761,300.369 152.248,300.369 C 153.735,300.369 154.925,300.568 157.602,300.071 C 160.279,299.574 175.447,300.27 176.538,299.972 C 177.629,299.673 179.116,300.966 179.116,300.966 C 179.116,300.966 179.412,299.475 180.602,299.574 C 181.791,299.673 183.18,299.673 183.874,299.872 C 184.568,300.071 185.063,299.574 185.063,296.392 C 185.063,293.21 185.856,281.476 186.155,281.178 C 186.451,280.879 187.145,297.983 187.145,300.867 C 187.145,303.75 188.166,303.718 189.228,304.745 C 192.003,307.429 194.382,315.881 195.87,315.881 C 198.149,315.881 198.448,300.27 201.124,300.27 C 203.801,300.27 204.396,300.469 206.875,300.071 C 209.354,299.673 215.797,299.872 218.275,299.972 C 220.754,300.071 226.306,299.673 227.396,300.27 C 228.486,300.867 228.486,300.966 228.785,300.469 C 229.081,299.972 229.28,299.772 230.667,299.972 C 232.056,300.17 233.741,301.264 234.237,297.983 C 234.732,294.701 234.931,282.073 235.426,282.073 C 235.922,282.073 236.518,297.784 236.518,300.767 C 236.518,303.75 238.104,304.645 239.491,306.137 C 240.879,307.628 243.655,316.18 245.142,316.18 C 247.125,316.18 247.72,300.667 249.802,300.667 C 251.487,300.667 253.371,301.065 256.246,300.568 C 259.121,300.071 270.72,300.27 273,300.27 C 275.975,300.27 276.173,301.264 276.768,301.264 C 277.362,301.264 276.768,300.17 278.354,300.17 C 279.94,300.17 281.923,301.264 282.221,299.275 C 282.518,297.287 283.608,281.576 283.608,281.576 C 283.608,281.576 284.501,297.983 284.699,301.264 C 284.897,304.546 286.483,304.546 287.673,306.335 C 288.862,308.125 291.837,316.379 293.225,316.379 C 295.307,316.379 296.398,300.568 298.182,300.568 C 299.967,300.568 299.87,301.264 303.236,300.867 C 306.606,300.469 309.187,300.469 311.072,300.27 C 312.952,300.071 321.286,300.369 322.768,300.369 C 324.26,300.369 324.654,301.264 325.245,301.264 C 325.841,301.264 325.344,300.071 326.338,300.071 C 327.333,300.071 328.218,299.972 329.412,300.17 C 330.605,300.369 330.898,300.27 331.194,296.79 C 331.491,293.309 331.789,281.874 332.286,281.874 C 332.783,281.874 333.082,299.077 333.28,301.662 C 333.479,304.248 335.061,304.347 337.145,307.927 C 339.228,311.506 340.81,316.379 341.705,316.379 C 342.6,316.379 343.684,313.694 344.38,308.225 C 345.076,302.756 345.673,300.867 347.155,300.867 C 348.646,300.867 350.229,301.463 352.217,300.867 C 354.196,300.27 358.165,300.369 362.72,300.369 C 367.286,300.369 371.741,300.071 373.133,300.667 C 374.519,301.264 374.815,301.463 375.112,300.568 C 375.411,299.673 376.405,299.772 377.79,300.17 C 379.18,300.568 380.174,301.065 380.37,298.182 C 380.567,295.298 381.06,282.073 381.458,282.073 C 381.856,282.073 382.253,297.585 382.551,300.568 C 382.85,303.551 382.85,303.75 385.127,305.838 C 387.405,307.927 389.985,316.578 391.274,316.578 C 392.567,316.578 393.354,311.208 393.95,307.827 C 394.546,304.446 394.944,300.767 396.526,300.767 C 398.117,300.767 399.106,301.562 401.886,300.867 C 404.661,300.17 410.608,300.369 414.771,300.369 C 418.934,300.369 423.499,300.568 424.286,301.364 C 425.179,300.27 425.179,300.27 425.179,300.27 C 425.179,300.27 429.745,301.065 429.842,299.972 C 429.942,298.878 430.928,281.874 431.425,281.874 C 431.922,281.874 432.321,299.475 432.419,301.861 C 432.519,304.248 435.194,305.44 436.581,308.324 C 437.969,311.208 439.949,316.776 440.944,316.776 C 441.938,316.776 442.727,313.793 443.321,309.617 C 443.917,305.44 444.812,301.065 446.195,301.065 C 447.586,301.065 449.073,301.861 452.045,301.165 C 455.022,300.469 470.389,301.264 471.477,301.165 C 472.571,301.065 473.66,302.159 474.153,302.159 C 474.649,302.159 474.848,300.966 475.544,301.264 C 476.241,301.562 476.633,301.065 477.823,301.364 C 479.016,301.662 479.609,301.861 479.906,299.972 C 480.201,298.082 481.094,283.167 481.094,283.167 C 481.094,283.167 482.282,298.282 482.282,301.265 C 482.282,304.248 482.682,304.943 483.374,305.64 M 88.463,263.578 L 89.077,263.578 L 89.077,279.149 L 96.989,279.149 L 96.989,263.578 L 97.623,263.578 M 98.476,263.08 C 99.764,265.467 101.054,267.058 101.748,267.058 C 102.442,267.058 103.929,262.285 105.02,261.986 C 106.109,261.688 108.489,262.086 110.374,262.086 C 112.256,262.086 114.536,261.986 116.816,261.887 C 119.096,261.788 121.575,262.285 123.559,262.086 C 125.54,261.887 128.019,262.086 128.912,261.986 C 129.805,261.887 129.805,263.279 130.498,262.981 C 131.192,264.075 131.093,263.776 131.093,263.776 C 131.093,263.776 132.977,261.986 133.967,261.986 C 134.959,261.986 135.852,261.788 135.951,261.191 C 136.645,261.788 137.339,274.714 137.339,277.3 C 137.636,269.842 137.734,265.268 138.132,263.975 C 138.527,262.683 137.833,259.898 138.527,259.103 C 138.726,261.191 138.925,261.788 138.925,261.788 C 138.925,261.788 141.305,260.992 142.99,260.992 C 145.964,260.992 148.244,267.555 149.632,267.555 C 151.019,267.555 150.723,262.583 153.299,262.583 C 155.878,262.583 159.446,262.683 162.024,262.483 C 164.602,262.285 171.641,262.583 173.922,262.683 C 176.202,262.782 177.688,262.384 178.382,263.08 C 179.076,263.776 179.275,263.478 179.275,263.478 L 179.969,264.472 C 179.969,264.472 181.356,263.378 181.753,263.08 C 182.149,262.782 184.529,262.483 184.727,261.788 C 185.223,263.279 186.314,275.112 186.016,278.294 C 186.314,271.135 186.908,259.998 187.305,259.998 C 187.702,259.998 187.503,262.285 188.098,262.285 C 188.693,262.285 188.396,261.589 190.775,261.589 C 195.235,261.589 197.12,268.251 198.408,268.251 C 199.697,268.251 199.697,262.981 202.175,262.981 C 204.654,262.981 225.473,262.683 226.763,262.683 C 228.051,262.683 228.349,263.776 228.546,263.478 C 228.745,263.18 228.845,264.373 229.24,264.373 C 229.638,264.373 231.224,262.483 232.612,262.384 C 233.999,262.285 233.702,262.483 233.702,262.483 L 233.999,261.788 C 233.999,261.788 234.496,264.572 234.892,269.046 C 235.289,273.521 235.289,278.493 235.289,278.493 C 235.289,278.493 235.884,268.748 235.884,266.461 C 235.884,264.174 236.181,260.197 236.478,260.197 C 236.775,260.197 236.478,262.683 237.865,262.285 C 239.254,261.887 241.336,261.291 243.021,262.583 C 244.707,263.876 246.194,268.151 247.582,268.151 C 248.97,268.151 248.871,263.18 251.349,263.18 C 253.828,263.18 259.578,263.08 260.668,262.881 C 261.758,262.683 272.268,262.683 274.052,262.683 C 275.836,262.683 276.035,263.677 276.729,263.677 C 277.422,263.677 277.422,264.572 277.422,264.572 C 277.422,264.572 279.008,262.881 280.1,262.782 C 281.19,262.683 281.884,262.285 282.38,262.285 C 282.875,262.285 283.272,277.499 283.569,277.797 C 283.867,278.095 284.164,270.24 284.164,267.555 C 284.164,264.87 284.362,261.489 284.66,260.396 C 285.254,262.285 285.056,262.583 285.453,262.583 C 285.85,262.583 287.932,261.887 289.121,261.887 C 293.285,261.887 294.276,268.351 295.765,268.351 C 297.25,268.351 297.151,262.981 299.928,262.981 C 302.707,262.981 321.64,262.981 323.125,262.981 C 324.615,262.981 325.702,264.075 325.801,264.87 C 327.292,263.975 327.392,262.881 328.576,262.881 C 329.769,262.881 330.465,262.683 330.861,262.086 C 331.55,262.981 332.146,277.797 332.146,277.797 C 332.146,277.797 332.942,260.097 333.339,260.097 C 333.737,260.097 333.935,262.683 333.935,262.683 C 333.935,262.683 335.717,261.589 337.107,261.589 C 338.492,261.589 340.083,262.384 341.267,264.373 C 342.46,266.362 343.843,268.351 344.539,268.351 C 345.235,268.351 345.831,262.981 348.606,262.981 C 351.381,262.981 358.719,263.08 361.892,263.08 C 365.063,263.08 371.604,263.08 372.794,263.08 C 373.988,263.08 373.888,264.373 374.48,263.975 C 375.073,263.578 375.469,264.671 375.469,264.671 C 375.469,264.671 376.563,264.273 376.961,263.677 C 377.358,263.08 377.848,262.881 378.941,262.881 C 380.035,262.881 380.134,262.285 380.134,262.285 C 380.134,262.285 381.12,265.765 381.12,268.649 C 381.12,271.532 381.318,277.996 381.318,277.996 C 381.318,277.996 382.413,260.793 382.709,260.097 C 382.909,261.489 383.008,262.782 383.407,262.782 C 383.799,262.782 384.59,261.887 387.07,261.887 C 390.243,261.887 392.129,268.351 394.008,268.351 C 395.301,268.351 395.5,263.279 397.678,263.279 C 399.857,263.279 408.684,262.981 411.559,262.981 C 414.437,262.981 422.862,262.881 423.458,263.378 C 424.051,263.876 425.239,264.97 425.239,264.97 C 425.239,264.97 426.133,264.174 426.927,263.478 C 427.715,262.782 429.107,262.981 429.704,262.583 C 430.295,262.186 430.592,263.378 430.69,265.367 C 430.788,267.356 430.987,278.592 431.286,278.592 C 431.583,278.592 431.583,268.848 431.783,267.257 C 431.981,265.666 431.981,261.291 432.379,260.495 C 432.678,261.788 432.579,263.08 433.567,262.683 C 434.557,262.285 436.444,262.086 437.73,262.086 C 439.714,262.086 442.295,268.351 443.678,268.351 C 445.07,268.351 445.07,263.08 447.844,263.08 C 450.62,263.08 471.735,262.981 472.629,262.981 C 473.522,262.981 473.424,263.876 474.016,263.876 C 474.609,263.876 474.808,264.87 475.106,264.87 C 475.405,264.87 476.989,262.683 477.782,262.881 C 478.577,263.08 479.373,262.483 479.867,262.483 C 480.36,262.483 481.053,273.621 481.053,277.001 C 481.651,269.743 482.036,260.893 482.44,260.893 C 482.84,260.893 482.545,263.08 483.334,262.683"
           style="fill:none;stroke:#231f20;stroke-width:0.79400003;stroke-linecap:round;stroke-linejoin:round;stroke-miterlimit:4;stroke-dasharray:none;stroke-opacity:1"
           id="path239" />
        <path
           d="M 88.443,224.631 L 89.117,224.631 L 89.117,240.276 L 96.649,240.276 L 96.649,224.564 L 97.256,224.564 M 98.288,231.923 C 98.815,233.315 99.213,235.635 100.203,235.635 C 102.121,235.635 101.921,222.908 105.787,222.908 C 109.653,222.908 125.314,222.908 127.793,222.808 C 130.27,222.708 130.866,223.902 131.758,223.405 C 132.649,222.908 133.344,222.708 134.432,222.708 C 135.524,222.708 135.82,222.51 135.82,222.51 C 135.82,222.51 136.613,225.493 136.613,229.47 C 136.613,233.448 137.011,240.906 137.011,240.906 C 137.011,240.906 137.803,216.643 138.198,216.643 C 138.597,216.643 138.894,222.112 138.894,222.112 C 138.894,222.112 142.191,221.85 143.552,224.499 C 145.236,227.78 146.823,235.635 148.014,235.635 C 149.499,235.635 150.688,223.802 152.573,223.305 C 154.455,222.808 160.699,222.808 165.357,222.808 C 170.017,222.808 177.551,222.708 179.038,223.206 C 180.524,223.703 180.722,223.206 181.614,222.708 C 182.506,222.211 183.795,223.106 184.489,222.708 C 185.184,224.499 185.579,240.906 185.877,240.906 C 186.174,240.906 186.174,229.371 186.174,226.686 C 186.174,224.001 186.174,217.041 186.67,217.041 C 187.165,217.041 187.264,220.322 187.363,221.515 C 187.463,222.708 191.229,221.515 193.014,225.891 C 194.797,230.266 195.688,235.934 196.68,235.934 C 198.663,235.934 199.06,223.305 201.735,223.206 C 204.411,223.106 225.525,223.106 226.713,223.106 C 227.904,223.106 229.192,224.001 229.192,224.001 C 229.192,224.001 231.075,222.908 231.77,222.908 C 232.463,222.908 233.256,223.007 233.85,222.708 C 234.445,225.692 235.138,241.403 235.138,241.403 C 235.138,241.403 235.535,217.836 236.23,216.742 C 236.527,219.924 236.626,220.322 236.626,221.515 C 236.626,222.708 237.684,221.996 239.301,222.808 C 243.862,225.095 244.258,235.735 245.943,235.735 C 247.231,235.735 247.827,231.658 248.322,228.874 C 248.817,226.089 249.313,223.007 251.99,223.007 C 254.665,223.007 273.597,223.106 274.787,223.106 C 275.977,223.106 276.956,223.902 277.457,223.902 C 277.958,223.902 278.653,223.007 280.139,223.007 C 281.626,223.007 282.122,222.708 282.122,222.708 C 282.122,222.708 282.519,227.283 282.717,230.763 C 282.915,234.243 283.311,240.607 283.311,240.607 C 283.311,240.607 283.807,217.24 284.302,217.24 C 284.798,217.24 284.896,221.018 284.896,222.013 C 284.896,223.007 288.961,221.615 290.646,226.189 C 292.331,230.763 293.124,235.834 294.314,235.834 C 295.504,235.834 296.101,230.763 296.694,228.376 C 297.286,225.99 296.792,223.106 300.856,223.106 C 304.922,223.106 320.683,223.206 321.965,223.106 C 323.26,223.007 325.039,223.604 326.232,223.604 C 327.424,223.604 328.309,222.609 329.403,222.808 C 330.496,223.007 330.496,223.007 330.496,223.007 C 330.496,223.007 332.08,237.127 331.88,240.806 C 332.378,229.968 332.278,217.339 332.875,217.339 C 333.472,217.339 333.074,220.421 333.272,221.515 C 333.472,222.609 337.034,221.714 339.021,225.791 C 340.999,229.868 341.297,235.735 342.886,235.735 C 345.263,235.735 344.567,223.206 348.337,223.206 C 352.105,223.206 371.725,222.808 373.018,222.808 C 374.303,222.808 374.697,223.703 375.194,223.703 C 375.692,223.703 376.983,222.808 378.069,222.808 C 379.163,222.808 379.958,222.708 379.958,222.708 C 379.958,222.708 381.042,234.741 381.34,240.409 C 381.34,228.476 381.936,217.24 382.235,217.24 C 382.534,217.24 382.732,219.825 382.732,221.217 C 382.732,222.609 383.326,222.311 384.809,222.51 C 386.301,222.708 388.48,224.399 389.571,228.774 C 390.657,233.149 391.452,235.635 392.445,235.635 C 393.432,235.635 394.327,230.862 394.825,228.575 C 395.322,226.289 395.519,222.908 398.69,222.908 C 401.862,222.908 421.483,223.007 423.073,223.206 C 424.656,223.405 425.153,224.2 425.352,223.604 C 425.551,223.007 427.133,223.106 427.133,223.106 C 427.133,223.106 429.12,223.007 429.813,222.908 C 430.502,222.808 430.999,241.9 430.999,241.9 C 430.999,241.9 431.594,218.433 432.194,217.24 C 432.492,219.924 432.591,221.494 432.591,222.289 C 432.591,223.084 436.073,221.745 438.336,226.289 C 439.624,228.874 441.013,235.934 442.204,235.934 C 443.389,235.934 443.787,232.254 444.284,229.271 C 444.781,226.289 445.472,223.305 448.843,223.305 C 452.209,223.305 469.957,223.206 471.342,223.206 C 472.734,223.206 474.512,224.101 475.11,224.101 C 475.706,224.101 476.202,223.405 477.286,223.405 C 478.381,223.405 478.879,223.405 478.879,223.405 C 478.879,223.405 479.67,222.51 479.965,224.797 C 480.262,227.084 480.758,239.215 481.056,239.215 C 481.354,239.215 481.542,218.035 482.044,218.035 C 482.544,218.035 482.347,222.808 483.334,223.106"
           style="fill:none;stroke:#231f20;stroke-width:0.79400003;stroke-linecap:round;stroke-linejoin:round;stroke-miterlimit:4;stroke-dasharray:none;stroke-opacity:1"
           id="path241" />
      </g>
    </g>
  </g>
</svg>
